<?xml version="1.0" encoding="UTF-8" standalone="no"?>
<!DOCTYPE svg PUBLIC "-//W3C//DTD SVG 1.1//EN"
 "http://www.w3.org/Graphics/SVG/1.1/DTD/svg11.dtd">
<!-- Generated by graphviz version 2.43.0 (0)
 -->
<!-- Title: graphname Pages: 1 -->
<svg width="2167pt" height="318pt"
 viewBox="0.00 0.00 2167.00 318.00" xmlns="http://www.w3.org/2000/svg" xmlns:xlink="http://www.w3.org/1999/xlink">
<g id="graph0" class="graph" transform="scale(1 1) rotate(0) translate(4 314)">
<title>graphname</title>
<polygon fill="white" stroke="transparent" points="-4,4 -4,-314 2163,-314 2163,4 -4,4"/>
<g id="clust1" class="cluster">
<title>cluster_0</title>
<polygon fill="none" stroke="black" points="8,-80 8,-302 530,-302 530,-80 8,-80"/>
<text text-anchor="middle" x="269" y="-286.8" font-family="Times,serif" font-size="14.00">intrometry</text>
</g>
<g id="clust2" class="cluster">
<title>cluster_1</title>
<polygon fill="none" stroke="black" points="538,-8 538,-155 2151,-155 2151,-8 538,-8"/>
<text text-anchor="middle" x="1344.5" y="-139.8" font-family="Times,serif" font-size="14.00">ariles</text>
</g>
<!-- intrometry_tests -->
<g id="node1" class="node">
<title>intrometry_tests</title>
<g id="a_node1"><a xlink:href="../intrometry_tests/index.html" xlink:title="intrometry_tests">
<ellipse fill="none" stroke="black" cx="268" cy="-253" rx="88.28" ry="18"/>
<text text-anchor="middle" x="268" y="-249.3" font-family="Times,serif" font-size="14.00">intrometry_tests</text>
</a>
</g>
</g>
<!-- intrometry_pjmsg_topic -->
<g id="node3" class="node">
<title>intrometry_pjmsg_topic</title>
<g id="a_node3"><a xlink:href="../intrometry_pjmsg_topic/index.html" xlink:title="intrometry_pjmsg_topic">
<ellipse fill="none" stroke="black" cx="137" cy="-181" rx="120.78" ry="18"/>
<text text-anchor="middle" x="137" y="-177.3" font-family="Times,serif" font-size="14.00">intrometry_pjmsg_topic</text>
</a>
</g>
</g>
<!-- intrometry_tests&#45;&gt;intrometry_pjmsg_topic -->
<g id="edge2" class="edge">
<title>intrometry_tests&#45;&gt;intrometry_pjmsg_topic</title>
<path fill="none" stroke="#0000ff" d="M237.47,-236.82C219.35,-227.14 196.03,-214.68 176.38,-204.18"/>
<path fill="none" stroke="#ff0000" d="M238.42,-235.06C220.29,-225.37 196.98,-212.91 177.32,-202.41"/>
<polygon fill="#0000ff" stroke="#0000ff" points="178.29,-200.1 167.82,-198.47 174.99,-206.27 178.29,-200.1"/>
</g>
<!-- intrometry_pjmsg_mcap -->
<g id="node4" class="node">
<title>intrometry_pjmsg_mcap</title>
<g id="a_node4"><a xlink:href="../intrometry_pjmsg_mcap/index.html" xlink:title="intrometry_pjmsg_mcap">
<ellipse fill="none" stroke="black" cx="399" cy="-181" rx="122.68" ry="18"/>
<text text-anchor="middle" x="399" y="-177.3" font-family="Times,serif" font-size="14.00">intrometry_pjmsg_mcap</text>
</a>
</g>
</g>
<!-- intrometry_tests&#45;&gt;intrometry_pjmsg_mcap -->
<g id="edge1" class="edge">
<title>intrometry_tests&#45;&gt;intrometry_pjmsg_mcap</title>
<path fill="none" stroke="#0000ff" d="M297.58,-235.06C315.71,-225.37 339.02,-212.91 358.68,-202.41"/>
<path fill="none" stroke="#ff0000" d="M298.53,-236.82C316.65,-227.14 339.97,-214.68 359.62,-204.18"/>
<polygon fill="#0000ff" stroke="#0000ff" points="361.01,-206.27 368.18,-198.47 357.71,-200.1 361.01,-206.27"/>
</g>
<!-- intrometry_frontend -->
<g id="node2" class="node">
<title>intrometry_frontend</title>
<g id="a_node2"><a xlink:href="../intrometry_frontend/index.html" xlink:title="intrometry_frontend">
<ellipse fill="none" stroke="black" cx="399" cy="-106" rx="105.08" ry="18"/>
<text text-anchor="middle" x="399" y="-102.3" font-family="Times,serif" font-size="14.00">intrometry_frontend</text>
</a>
</g>
</g>
<!-- ariles2_core_ws -->
<g id="node9" class="node">
<title>ariles2_core_ws</title>
<g id="a_node9"><a xlink:href="../ariles2_core_ws/index.html" xlink:title="ariles2_core_ws">
<ellipse fill="none" stroke="black" cx="1230" cy="-34" rx="83.69" ry="18"/>
<text text-anchor="middle" x="1230" y="-30.3" font-family="Times,serif" font-size="14.00">ariles2_core_ws</text>
</a>
</g>
</g>
<!-- intrometry_frontend&#45;&gt;ariles2_core_ws -->
<g id="edge7" class="edge">
<title>intrometry_frontend&#45;&gt;ariles2_core_ws</title>
<path fill="none" stroke="#0000ff" d="M462.44,-90.63C484.92,-86.33 510.41,-81.93 533.88,-79.01 748.85,-52.25 1003.17,-40.92 1136.96,-36.51"/>
<path fill="none" stroke="#ff0000" d="M462.81,-92.6C485.26,-88.3 510.75,-83.9 534.12,-80.99 748.94,-54.25 1003.26,-42.91 1137.03,-38.51"/>
<polygon fill="#0000ff" stroke="#0000ff" points="1137.32,-41 1147.2,-37.18 1137.1,-34 1137.32,-41"/>
</g>
<!-- intrometry_pjmsg_topic&#45;&gt;intrometry_frontend -->
<g id="edge4" class="edge">
<title>intrometry_pjmsg_topic&#45;&gt;intrometry_frontend</title>
<path fill="none" stroke="#0000ff" d="M191.02,-163.91C233.24,-152.15 291.88,-135.81 336.09,-123.49"/>
<path fill="none" stroke="#ff0000" d="M191.55,-165.84C233.78,-154.07 292.41,-137.74 336.62,-125.42"/>
<polygon fill="#0000ff" stroke="#0000ff" points="337.43,-127.79 346.13,-121.73 335.55,-121.04 337.43,-127.79"/>
</g>
<!-- ariles2_namevalue2_ws -->
<g id="node11" class="node">
<title>ariles2_namevalue2_ws</title>
<g id="a_node11"><a xlink:href="../ariles2_namevalue2_ws/index.html" xlink:title="ariles2_namevalue2_ws">
<ellipse fill="none" stroke="black" cx="2023" cy="-106" rx="120.48" ry="18"/>
<text text-anchor="middle" x="2023" y="-102.3" font-family="Times,serif" font-size="14.00">ariles2_namevalue2_ws</text>
</a>
</g>
</g>
<!-- intrometry_pjmsg_topic&#45;&gt;ariles2_namevalue2_ws -->
<g id="edge3" class="edge">
<title>intrometry_pjmsg_topic&#45;&gt;ariles2_namevalue2_ws</title>
<path fill="none" stroke="#0000ff" d="M218.9,-166.7C234.8,-164.76 251.34,-163.06 266.93,-162 312.09,-158.95 1849.54,-162.12 1893.82,-154.02 1923.23,-148.66 1954.89,-136.98 1979.39,-126.51"/>
<path fill="none" stroke="#ff0000" d="M219.14,-168.68C235.01,-166.75 251.55,-165.05 267.07,-164 312.09,-160.95 1849.54,-164.12 1894.18,-155.98 1923.92,-150.54 1955.58,-138.86 1980.18,-128.35"/>
<polygon fill="#0000ff" stroke="#0000ff" points="1981.4,-130.54 1989.17,-123.33 1978.6,-124.13 1981.4,-130.54"/>
</g>
<!-- intrometry_pjmsg_mcap&#45;&gt;intrometry_frontend -->
<g id="edge6" class="edge">
<title>intrometry_pjmsg_mcap&#45;&gt;intrometry_frontend</title>
<path fill="none" stroke="#0000ff" d="M398,-162.7C398,-154.25 398,-143.87 398,-134.37"/>
<path fill="none" stroke="#ff0000" d="M400,-162.7C400,-154.25 400,-143.87 400,-134.37"/>
<polygon fill="#0000ff" stroke="#0000ff" points="402.5,-134.18 399,-124.18 395.5,-134.18 402.5,-134.18"/>
</g>
<!-- intrometry_pjmsg_mcap&#45;&gt;ariles2_namevalue2_ws -->
<g id="edge5" class="edge">
<title>intrometry_pjmsg_mcap&#45;&gt;ariles2_namevalue2_ws</title>
<path fill="none" stroke="#0000ff" d="M521.78,-179.33C855.15,-179.89 1761.2,-179.05 1893.81,-154.02 1923.09,-148.51 1954.63,-136.88 1979.11,-126.48"/>
<path fill="none" stroke="#ff0000" d="M521.77,-181.33C855.15,-181.89 1761.2,-181.05 1894.19,-155.98 1923.78,-150.38 1955.32,-138.76 1979.89,-128.32"/>
<polygon fill="#0000ff" stroke="#0000ff" points="1981.1,-130.53 1988.88,-123.34 1978.31,-124.11 1981.1,-130.53"/>
</g>
<!-- ariles2_graphviz_ws -->
<g id="node5" class="node">
<title>ariles2_graphviz_ws</title>
<g id="a_node5"><a xlink:href="../ariles2_graphviz_ws/index.html" xlink:title="ariles2_graphviz_ws">
<ellipse fill="none" stroke="black" cx="1574" cy="-106" rx="104.78" ry="18"/>
<text text-anchor="middle" x="1574" y="-102.3" font-family="Times,serif" font-size="14.00">ariles2_graphviz_ws</text>
</a>
</g>
</g>
<!-- ariles2_graphviz_ws&#45;&gt;ariles2_core_ws -->
<g id="edge14" class="edge">
<title>ariles2_graphviz_ws&#45;&gt;ariles2_core_ws</title>
<path fill="none" stroke="#0000ff" d="M1512.61,-92.29C1495.53,-88.55 1476.95,-84.54 1459.8,-80.98 1406.47,-69.92 1346.02,-58.12 1300.49,-49.38"/>
<path fill="none" stroke="#ff0000" d="M1513.03,-90.34C1495.95,-86.59 1477.37,-82.58 1460.2,-79.02 1406.86,-67.95 1346.41,-56.16 1300.86,-47.42"/>
<polygon fill="#0000ff" stroke="#0000ff" points="1301.09,-44.91 1290.61,-46.47 1299.77,-51.79 1301.09,-44.91"/>
</g>
<!-- ariles2_rapidjson_ws -->
<g id="node6" class="node">
<title>ariles2_rapidjson_ws</title>
<g id="a_node6"><a xlink:href="../ariles2_rapidjson_ws/index.html" xlink:title="ariles2_rapidjson_ws">
<ellipse fill="none" stroke="black" cx="1344" cy="-106" rx="107.48" ry="18"/>
<text text-anchor="middle" x="1344" y="-102.3" font-family="Times,serif" font-size="14.00">ariles2_rapidjson_ws</text>
</a>
</g>
</g>
<!-- ariles2_rapidjson_ws&#45;&gt;ariles2_core_ws -->
<g id="edge10" class="edge">
<title>ariles2_rapidjson_ws&#45;&gt;ariles2_core_ws</title>
<path fill="none" stroke="#0000ff" d="M1316.46,-89.26C1301.02,-79.78 1281.47,-67.78 1264.81,-57.55"/>
<path fill="none" stroke="#ff0000" d="M1317.51,-87.56C1302.06,-78.08 1282.51,-66.07 1265.86,-55.85"/>
<polygon fill="#0000ff" stroke="#0000ff" points="1266.78,-53.48 1256.43,-51.23 1263.12,-59.44 1266.78,-53.48"/>
</g>
<!-- ariles2_yamlcpp_ws -->
<g id="node7" class="node">
<title>ariles2_yamlcpp_ws</title>
<g id="a_node7"><a xlink:href="../ariles2_yamlcpp_ws/index.html" xlink:title="ariles2_yamlcpp_ws">
<ellipse fill="none" stroke="black" cx="1116" cy="-106" rx="102.88" ry="18"/>
<text text-anchor="middle" x="1116" y="-102.3" font-family="Times,serif" font-size="14.00">ariles2_yamlcpp_ws</text>
</a>
</g>
</g>
<!-- ariles2_yamlcpp_ws&#45;&gt;ariles2_core_ws -->
<g id="edge8" class="edge">
<title>ariles2_yamlcpp_ws&#45;&gt;ariles2_core_ws</title>
<path fill="none" stroke="#0000ff" d="M1142.2,-87.74C1157.64,-78.26 1177.25,-66.22 1193.97,-55.95"/>
<path fill="none" stroke="#ff0000" d="M1143.25,-89.44C1158.69,-79.96 1178.3,-67.92 1195.02,-57.65"/>
<polygon fill="#0000ff" stroke="#0000ff" points="1196.75,-59.52 1203.44,-51.31 1193.09,-53.56 1196.75,-59.52"/>
</g>
<!-- ariles2_ros2param_ws -->
<g id="node8" class="node">
<title>ariles2_ros2param_ws</title>
<g id="a_node8"><a xlink:href="../ariles2_ros2param_ws/index.html" xlink:title="ariles2_ros2param_ws">
<ellipse fill="none" stroke="black" cx="881" cy="-106" rx="114.28" ry="18"/>
<text text-anchor="middle" x="881" y="-102.3" font-family="Times,serif" font-size="14.00">ariles2_ros2param_ws</text>
</a>
</g>
</g>
<!-- ariles2_ros2param_ws&#45;&gt;ariles2_core_ws -->
<g id="edge9" class="edge">
<title>ariles2_ros2param_ws&#45;&gt;ariles2_core_ws</title>
<path fill="none" stroke="#0000ff" d="M947.82,-90.35C965.98,-86.66 985.64,-82.67 1003.8,-79.02 1056.31,-68.46 1115.71,-56.63 1160.43,-47.76"/>
<path fill="none" stroke="#ff0000" d="M948.22,-92.31C966.38,-88.62 986.04,-84.63 1004.2,-80.98 1056.7,-70.42 1116.1,-58.6 1160.82,-49.72"/>
<polygon fill="#0000ff" stroke="#0000ff" points="1161.38,-52.16 1170.51,-46.78 1160.02,-45.29 1161.38,-52.16"/>
</g>
<!-- ariles2_pugixml_ws -->
<g id="node10" class="node">
<title>ariles2_pugixml_ws</title>
<g id="a_node10"><a xlink:href="../ariles2_pugixml_ws/index.html" xlink:title="ariles2_pugixml_ws">
<ellipse fill="none" stroke="black" cx="647" cy="-106" rx="101.28" ry="18"/>
<text text-anchor="middle" x="647" y="-102.3" font-family="Times,serif" font-size="14.00">ariles2_pugixml_ws</text>
</a>
</g>
</g>
<!-- ariles2_pugixml_ws&#45;&gt;ariles2_core_ws -->
<g id="edge11" class="edge">
<title>ariles2_pugixml_ws&#45;&gt;ariles2_core_ws</title>
<path fill="none" stroke="#0000ff" d="M702.69,-89.98C720.26,-85.96 739.75,-81.9 757.84,-79.01 889.88,-57.94 1044.28,-45.49 1139.61,-39.21"/>
<path fill="none" stroke="#ff0000" d="M703.14,-91.93C720.66,-87.92 740.16,-83.86 758.16,-80.99 890.04,-59.93 1044.44,-47.49 1139.74,-41.2"/>
<polygon fill="#0000ff" stroke="#0000ff" points="1140.1,-43.68 1149.85,-39.54 1139.65,-36.7 1140.1,-43.68"/>
</g>
<!-- ariles2_namevalue2_ws&#45;&gt;ariles2_core_ws -->
<g id="edge13" class="edge">
<title>ariles2_namevalue2_ws&#45;&gt;ariles2_core_ws</title>
<path fill="none" stroke="#0000ff" d="M1957.77,-91.75C1937.4,-87.73 1914.75,-83.71 1893.87,-80.99 1691.2,-54.59 1451.48,-43.19 1322.79,-38.67"/>
<path fill="none" stroke="#ff0000" d="M1958.15,-89.79C1937.74,-85.76 1915.1,-81.74 1894.13,-79.01 1691.3,-52.59 1451.58,-41.19 1322.86,-36.67"/>
<polygon fill="#0000ff" stroke="#0000ff" points="1322.73,-34.16 1312.62,-37.31 1322.49,-41.16 1322.73,-34.16"/>
</g>
<!-- ariles2_octave_ws -->
<g id="node12" class="node">
<title>ariles2_octave_ws</title>
<g id="a_node12"><a xlink:href="../ariles2_octave_ws/index.html" xlink:title="ariles2_octave_ws">
<ellipse fill="none" stroke="black" cx="1791" cy="-106" rx="94.48" ry="18"/>
<text text-anchor="middle" x="1791" y="-102.3" font-family="Times,serif" font-size="14.00">ariles2_octave_ws</text>
</a>
</g>
</g>
<!-- ariles2_octave_ws&#45;&gt;ariles2_core_ws -->
<g id="edge12" class="edge">
<title>ariles2_octave_ws&#45;&gt;ariles2_core_ws</title>
<path fill="none" stroke="#0000ff" d="M1738.92,-91.89C1722.66,-87.88 1704.56,-83.82 1687.83,-80.99 1561.31,-59.52 1413.15,-47.27 1320.42,-41.13"/>
<path fill="none" stroke="#ff0000" d="M1739.4,-89.95C1723.1,-85.92 1705,-81.87 1688.17,-79.01 1561.48,-57.53 1413.31,-45.28 1320.55,-39.14"/>
<polygon fill="#0000ff" stroke="#0000ff" points="1320.5,-36.63 1310.29,-39.47 1320.04,-43.61 1320.5,-36.63"/>
</g>
</g>
</svg>
