<?xml version="1.0" encoding="UTF-8" standalone="no"?>
<!DOCTYPE svg PUBLIC "-//W3C//DTD SVG 1.1//EN"
 "http://www.w3.org/Graphics/SVG/1.1/DTD/svg11.dtd">
<!-- Generated by graphviz version 2.43.0 (0)
 -->
<!-- Title: graphname Pages: 1 -->
<svg width="2167pt" height="318pt"
 viewBox="0.00 0.00 2167.00 318.00" xmlns="http://www.w3.org/2000/svg" xmlns:xlink="http://www.w3.org/1999/xlink">
<g id="graph0" class="graph" transform="scale(1 1) rotate(0) translate(4 314)">
<title>graphname</title>
<polygon fill="white" stroke="transparent" points="-4,4 -4,-314 2163,-314 2163,4 -4,4"/>
<g id="clust1" class="cluster">
<title>cluster_0</title>
<polygon fill="none" stroke="black" points="8,-80 8,-302 530,-302 530,-80 8,-80"/>
<text text-anchor="middle" x="269" y="-286.8" font-family="Times,serif" font-size="14.00">intrometry</text>
</g>
<g id="clust2" class="cluster">
<title>cluster_1</title>
<polygon fill="none" stroke="black" points="538,-8 538,-155 2151,-155 2151,-8 538,-8"/>
<text text-anchor="middle" x="1344.5" y="-139.8" font-family="Times,serif" font-size="14.00">ariles</text>
</g>
<!-- intrometry_pjmsg_mcap -->
<g id="node1" class="node">
<title>intrometry_pjmsg_mcap</title>
<g id="a_node1"><a xlink:href="../intrometry_pjmsg_mcap/index.html" xlink:title="intrometry_pjmsg_mcap">
<ellipse fill="none" stroke="black" cx="139" cy="-181" rx="122.68" ry="18"/>
<text text-anchor="middle" x="139" y="-177.3" font-family="Times,serif" font-size="14.00">intrometry_pjmsg_mcap</text>
</a>
</g>
</g>
<!-- intrometry_frontend -->
<g id="node2" class="node">
<title>intrometry_frontend</title>
<g id="a_node2"><a xlink:href="../intrometry_frontend/index.html" xlink:title="intrometry_frontend">
<ellipse fill="none" stroke="black" cx="401" cy="-106" rx="105.08" ry="18"/>
<text text-anchor="middle" x="401" y="-102.3" font-family="Times,serif" font-size="14.00">intrometry_frontend</text>
</a>
</g>
</g>
<!-- intrometry_pjmsg_mcap&#45;&gt;intrometry_frontend -->
<g id="edge5" class="edge">
<title>intrometry_pjmsg_mcap&#45;&gt;intrometry_frontend</title>
<path fill="none" stroke="#0000ff" d="M193.34,-163.82C235.58,-152.05 294.12,-135.74 338.24,-123.45"/>
<path fill="none" stroke="#ff0000" d="M193.87,-165.75C236.12,-153.98 294.66,-137.67 338.77,-125.38"/>
<polygon fill="#0000ff" stroke="#0000ff" points="339.56,-127.75 348.25,-121.7 337.68,-121.01 339.56,-127.75"/>
</g>
<!-- ariles2_namevalue2_ws -->
<g id="node12" class="node">
<title>ariles2_namevalue2_ws</title>
<g id="a_node12"><a xlink:href="../ariles2_namevalue2_ws/index.html" xlink:title="ariles2_namevalue2_ws">
<ellipse fill="none" stroke="black" cx="1791" cy="-106" rx="120.48" ry="18"/>
<text text-anchor="middle" x="1791" y="-102.3" font-family="Times,serif" font-size="14.00">ariles2_namevalue2_ws</text>
</a>
</g>
</g>
<!-- intrometry_pjmsg_mcap&#45;&gt;ariles2_namevalue2_ws -->
<g id="edge6" class="edge">
<title>intrometry_pjmsg_mcap&#45;&gt;ariles2_namevalue2_ws</title>
<path fill="none" stroke="#0000ff" d="M222.17,-166.71C238.31,-164.77 255.11,-163.06 270.93,-162 348.12,-156.83 1585.99,-167.91 1661.82,-154.02 1691.22,-148.65 1722.88,-136.97 1747.39,-126.5"/>
<path fill="none" stroke="#ff0000" d="M222.41,-168.7C238.52,-166.76 255.31,-165.05 271.07,-164 348.1,-158.83 1585.97,-169.91 1662.18,-155.98 1691.92,-150.53 1723.58,-138.84 1748.18,-128.34"/>
<polygon fill="#0000ff" stroke="#0000ff" points="1749.4,-130.53 1757.17,-123.32 1746.6,-124.12 1749.4,-130.53"/>
</g>
<!-- ariles2_core_ws -->
<g id="node11" class="node">
<title>ariles2_core_ws</title>
<g id="a_node11"><a xlink:href="../ariles2_core_ws/index.html" xlink:title="ariles2_core_ws">
<ellipse fill="none" stroke="black" cx="1213" cy="-34" rx="83.69" ry="18"/>
<text text-anchor="middle" x="1213" y="-30.3" font-family="Times,serif" font-size="14.00">ariles2_core_ws</text>
</a>
</g>
</g>
<!-- intrometry_frontend&#45;&gt;ariles2_core_ws -->
<g id="edge7" class="edge">
<title>intrometry_frontend&#45;&gt;ariles2_core_ws</title>
<path fill="none" stroke="#0000ff" d="M463.82,-90.58C485.89,-86.29 510.87,-81.92 533.87,-79.01 742.56,-52.58 989.32,-41.14 1120.35,-36.63"/>
<path fill="none" stroke="#ff0000" d="M464.2,-92.54C486.23,-88.26 511.21,-83.89 534.13,-80.99 742.66,-54.58 989.41,-43.14 1120.42,-38.63"/>
<polygon fill="#0000ff" stroke="#0000ff" points="1120.51,-41.13 1130.39,-37.29 1120.27,-34.13 1120.51,-41.13"/>
</g>
<!-- intrometry_tests -->
<g id="node3" class="node">
<title>intrometry_tests</title>
<g id="a_node3"><a xlink:href="../intrometry_tests/index.html" xlink:title="intrometry_tests">
<ellipse fill="none" stroke="black" cx="270" cy="-253" rx="88.28" ry="18"/>
<text text-anchor="middle" x="270" y="-249.3" font-family="Times,serif" font-size="14.00">intrometry_tests</text>
</a>
</g>
</g>
<!-- intrometry_tests&#45;&gt;intrometry_pjmsg_mcap -->
<g id="edge1" class="edge">
<title>intrometry_tests&#45;&gt;intrometry_pjmsg_mcap</title>
<path fill="none" stroke="#0000ff" d="M239.47,-236.82C221.35,-227.14 198.03,-214.68 178.38,-204.18"/>
<path fill="none" stroke="#ff0000" d="M240.42,-235.06C222.29,-225.37 198.98,-212.91 179.32,-202.41"/>
<polygon fill="#0000ff" stroke="#0000ff" points="180.29,-200.1 169.82,-198.47 176.99,-206.27 180.29,-200.1"/>
</g>
<!-- intrometry_pjmsg_topic -->
<g id="node4" class="node">
<title>intrometry_pjmsg_topic</title>
<g id="a_node4"><a xlink:href="../intrometry_pjmsg_topic/index.html" xlink:title="intrometry_pjmsg_topic">
<ellipse fill="none" stroke="black" cx="401" cy="-181" rx="120.78" ry="18"/>
<text text-anchor="middle" x="401" y="-177.3" font-family="Times,serif" font-size="14.00">intrometry_pjmsg_topic</text>
</a>
</g>
</g>
<!-- intrometry_tests&#45;&gt;intrometry_pjmsg_topic -->
<g id="edge2" class="edge">
<title>intrometry_tests&#45;&gt;intrometry_pjmsg_topic</title>
<path fill="none" stroke="#0000ff" d="M299.58,-235.06C317.71,-225.37 341.02,-212.91 360.68,-202.41"/>
<path fill="none" stroke="#ff0000" d="M300.53,-236.82C318.65,-227.14 341.97,-214.68 361.62,-204.18"/>
<polygon fill="#0000ff" stroke="#0000ff" points="363.01,-206.27 370.18,-198.47 359.71,-200.1 363.01,-206.27"/>
</g>
<!-- intrometry_pjmsg_topic&#45;&gt;intrometry_frontend -->
<g id="edge4" class="edge">
<title>intrometry_pjmsg_topic&#45;&gt;intrometry_frontend</title>
<path fill="none" stroke="#0000ff" d="M400,-162.7C400,-154.25 400,-143.87 400,-134.37"/>
<path fill="none" stroke="#ff0000" d="M402,-162.7C402,-154.25 402,-143.87 402,-134.37"/>
<polygon fill="#0000ff" stroke="#0000ff" points="404.5,-134.18 401,-124.18 397.5,-134.18 404.5,-134.18"/>
</g>
<!-- intrometry_pjmsg_topic&#45;&gt;ariles2_namevalue2_ws -->
<g id="edge3" class="edge">
<title>intrometry_pjmsg_topic&#45;&gt;ariles2_namevalue2_ws</title>
<path fill="none" stroke="#0000ff" d="M521.83,-178.91C815.78,-178.36 1552.22,-174.89 1661.81,-154.02 1691.08,-148.46 1722.62,-136.84 1747.1,-126.45"/>
<path fill="none" stroke="#ff0000" d="M521.83,-180.91C815.79,-180.36 1552.23,-176.89 1662.19,-155.98 1691.77,-150.34 1723.31,-138.71 1747.89,-128.29"/>
<polygon fill="#0000ff" stroke="#0000ff" points="1749.09,-130.49 1756.87,-123.31 1746.3,-124.07 1749.09,-130.49"/>
</g>
<!-- ariles2_yamlcpp_ws -->
<g id="node5" class="node">
<title>ariles2_yamlcpp_ws</title>
<g id="a_node5"><a xlink:href="../ariles2_yamlcpp_ws/index.html" xlink:title="ariles2_yamlcpp_ws">
<ellipse fill="none" stroke="black" cx="1550" cy="-106" rx="102.88" ry="18"/>
<text text-anchor="middle" x="1550" y="-102.3" font-family="Times,serif" font-size="14.00">ariles2_yamlcpp_ws</text>
</a>
</g>
</g>
<!-- ariles2_yamlcpp_ws&#45;&gt;ariles2_core_ws -->
<g id="edge8" class="edge">
<title>ariles2_yamlcpp_ws&#45;&gt;ariles2_core_ws</title>
<path fill="none" stroke="#0000ff" d="M1490.22,-92.27C1473.59,-88.53 1455.5,-84.52 1438.79,-80.98 1386.78,-69.94 1327.84,-58.23 1283.2,-49.53"/>
<path fill="none" stroke="#ff0000" d="M1490.66,-90.32C1474.02,-86.57 1455.93,-82.57 1439.21,-79.02 1387.17,-67.98 1328.23,-56.27 1283.58,-47.56"/>
<polygon fill="#0000ff" stroke="#0000ff" points="1284,-45.1 1273.52,-46.62 1282.66,-51.97 1284,-45.1"/>
</g>
<!-- ariles2_graphviz_ws -->
<g id="node6" class="node">
<title>ariles2_graphviz_ws</title>
<g id="a_node6"><a xlink:href="../ariles2_graphviz_ws/index.html" xlink:title="ariles2_graphviz_ws">
<ellipse fill="none" stroke="black" cx="1325" cy="-106" rx="104.78" ry="18"/>
<text text-anchor="middle" x="1325" y="-102.3" font-family="Times,serif" font-size="14.00">ariles2_graphviz_ws</text>
</a>
</g>
</g>
<!-- ariles2_graphviz_ws&#45;&gt;ariles2_core_ws -->
<g id="edge14" class="edge">
<title>ariles2_graphviz_ws&#45;&gt;ariles2_core_ws</title>
<path fill="none" stroke="#0000ff" d="M1297.93,-89.26C1282.75,-79.78 1263.55,-67.77 1247.19,-57.55"/>
<path fill="none" stroke="#ff0000" d="M1298.99,-87.56C1283.81,-78.08 1264.61,-66.08 1248.25,-55.85"/>
<polygon fill="#0000ff" stroke="#0000ff" points="1249.3,-53.56 1238.97,-51.23 1245.59,-59.5 1249.3,-53.56"/>
</g>
<!-- ariles2_pugixml_ws -->
<g id="node7" class="node">
<title>ariles2_pugixml_ws</title>
<g id="a_node7"><a xlink:href="../ariles2_pugixml_ws/index.html" xlink:title="ariles2_pugixml_ws">
<ellipse fill="none" stroke="black" cx="1101" cy="-106" rx="101.28" ry="18"/>
<text text-anchor="middle" x="1101" y="-102.3" font-family="Times,serif" font-size="14.00">ariles2_pugixml_ws</text>
</a>
</g>
</g>
<!-- ariles2_pugixml_ws&#45;&gt;ariles2_core_ws -->
<g id="edge11" class="edge">
<title>ariles2_pugixml_ws&#45;&gt;ariles2_core_ws</title>
<path fill="none" stroke="#0000ff" d="M1126.73,-87.74C1141.89,-78.26 1161.16,-66.22 1177.59,-55.95"/>
<path fill="none" stroke="#ff0000" d="M1127.79,-89.44C1142.95,-79.96 1162.22,-67.92 1178.65,-57.65"/>
<polygon fill="#0000ff" stroke="#0000ff" points="1180.28,-59.58 1186.91,-51.31 1176.57,-53.64 1180.28,-59.58"/>
</g>
<!-- ariles2_ros2param_ws -->
<g id="node8" class="node">
<title>ariles2_ros2param_ws</title>
<g id="a_node8"><a xlink:href="../ariles2_ros2param_ws/index.html" xlink:title="ariles2_ros2param_ws">
<ellipse fill="none" stroke="black" cx="867" cy="-106" rx="114.28" ry="18"/>
<text text-anchor="middle" x="867" y="-102.3" font-family="Times,serif" font-size="14.00">ariles2_ros2param_ws</text>
</a>
</g>
</g>
<!-- ariles2_ros2param_ws&#45;&gt;ariles2_core_ws -->
<g id="edge9" class="edge">
<title>ariles2_ros2param_ws&#45;&gt;ariles2_core_ws</title>
<path fill="none" stroke="#0000ff" d="M933.92,-90.44C994.43,-78.2 1083,-60.28 1144.01,-47.94"/>
<path fill="none" stroke="#ff0000" d="M934.32,-92.4C994.82,-80.16 1083.39,-62.24 1144.41,-49.9"/>
<polygon fill="#0000ff" stroke="#0000ff" points="1145.02,-52.32 1154.13,-46.91 1143.64,-45.46 1145.02,-52.32"/>
</g>
<!-- ariles2_octave_ws -->
<g id="node9" class="node">
<title>ariles2_octave_ws</title>
<g id="a_node9"><a xlink:href="../ariles2_octave_ws/index.html" xlink:title="ariles2_octave_ws">
<ellipse fill="none" stroke="black" cx="640" cy="-106" rx="94.48" ry="18"/>
<text text-anchor="middle" x="640" y="-102.3" font-family="Times,serif" font-size="14.00">ariles2_octave_ws</text>
</a>
</g>
</g>
<!-- ariles2_octave_ws&#45;&gt;ariles2_core_ws -->
<g id="edge12" class="edge">
<title>ariles2_octave_ws&#45;&gt;ariles2_core_ws</title>
<path fill="none" stroke="#0000ff" d="M691.84,-90C708.37,-85.95 726.75,-81.87 743.83,-79.01 874.5,-57.16 1027.43,-44.95 1122.28,-38.92"/>
<path fill="none" stroke="#ff0000" d="M692.32,-91.94C708.8,-87.9 727.18,-83.83 744.17,-80.99 874.66,-59.15 1027.59,-46.94 1122.4,-40.92"/>
<polygon fill="#0000ff" stroke="#0000ff" points="1122.71,-43.4 1132.47,-39.28 1122.27,-36.41 1122.71,-43.4"/>
</g>
<!-- ariles2_rapidjson_ws -->
<g id="node10" class="node">
<title>ariles2_rapidjson_ws</title>
<g id="a_node10"><a xlink:href="../ariles2_rapidjson_ws/index.html" xlink:title="ariles2_rapidjson_ws">
<ellipse fill="none" stroke="black" cx="2036" cy="-106" rx="107.48" ry="18"/>
<text text-anchor="middle" x="2036" y="-102.3" font-family="Times,serif" font-size="14.00">ariles2_rapidjson_ws</text>
</a>
</g>
</g>
<!-- ariles2_rapidjson_ws&#45;&gt;ariles2_core_ws -->
<g id="edge10" class="edge">
<title>ariles2_rapidjson_ws&#45;&gt;ariles2_core_ws</title>
<path fill="none" stroke="#0000ff" d="M1977.97,-91.75C1959.5,-87.68 1938.89,-83.63 1919.86,-80.99 1701.65,-50.7 1442.53,-40.77 1306.73,-37.54"/>
<path fill="none" stroke="#ff0000" d="M1978.4,-89.79C1959.89,-85.72 1939.27,-81.67 1920.14,-79.01 1701.72,-48.7 1442.61,-38.77 1306.78,-35.54"/>
<polygon fill="#0000ff" stroke="#0000ff" points="1306.47,-33.03 1296.39,-36.3 1306.31,-40.03 1306.47,-33.03"/>
</g>
<!-- ariles2_namevalue2_ws&#45;&gt;ariles2_core_ws -->
<g id="edge13" class="edge">
<title>ariles2_namevalue2_ws&#45;&gt;ariles2_core_ws</title>
<path fill="none" stroke="#0000ff" d="M1724.39,-91.9C1704.35,-87.98 1682.25,-83.98 1661.85,-80.99 1537.14,-62.69 1391.76,-49.62 1301.03,-42.43"/>
<path fill="none" stroke="#ff0000" d="M1724.77,-89.94C1704.71,-86.01 1682.6,-82.01 1662.15,-79.01 1537.32,-60.7 1391.94,-47.62 1301.19,-40.44"/>
<polygon fill="#0000ff" stroke="#0000ff" points="1301.38,-37.94 1291.14,-40.65 1300.83,-44.92 1301.38,-37.94"/>
</g>
</g>
</svg>
