<?xml version="1.0" encoding="UTF-8" standalone="no"?>
<!DOCTYPE svg PUBLIC "-//W3C//DTD SVG 1.1//EN"
 "http://www.w3.org/Graphics/SVG/1.1/DTD/svg11.dtd">
<!-- Generated by graphviz version 2.43.0 (0)
 -->
<!-- Title: packages_cdinit_recursive_all Pages: 1 -->
<svg width="130pt" height="177pt"
 viewBox="0.00 0.00 130.00 177.00" xmlns="http://www.w3.org/2000/svg" xmlns:xlink="http://www.w3.org/1999/xlink">
<g id="graph0" class="graph" transform="scale(1 1) rotate(0) translate(4 173)">
<title>packages_cdinit_recursive_all</title>
<polygon fill="white" stroke="transparent" points="-4,4 -4,-173 126,-173 126,4 -4,4"/>
<g id="clust1" class="cluster">
<title>cluster_2</title>
<polygon fill="none" stroke="black" points="8,-8 8,-161 114,-161 114,-8 8,-8"/>
<text text-anchor="middle" x="61" y="-145.8" font-family="Monospace" font-size="14.00">cdinit</text>
</g>
<!-- cluster_2.cdinit_ros2 -->
<g id="node1" class="node">
<title>cluster_2.cdinit_ros2</title>
<path fill="lightgray" stroke="black" d="M94,-130C94,-130 28,-130 28,-130 22,-130 16,-124 16,-118 16,-118 16,-103 16,-103 16,-97 22,-91 28,-91 28,-91 94,-91 94,-91 100,-91 106,-97 106,-103 106,-103 106,-118 106,-118 106,-124 100,-130 94,-130"/>
<g id="a_node1_0"><a xlink:href="cdinit_ros2/index.html" xlink:title="&lt;TABLE&gt;">
<text text-anchor="start" x="27.5" y="-114.5" font-family="Monospace" font-size="10.00">cdinit_ros2</text>
</a>
</g>
<g id="a_node1_1"><a xlink:href="packages.svg" xlink:title="&lt;TABLE&gt;">
<text text-anchor="start" x="31" y="-100.1" font-family="Monospace" font-size="8.00">all</text>
</a>
</g>
<g id="a_node1_2"><a xlink:href="packages_cdinit_ros2_recursive_all.svg" xlink:title="&lt;TABLE&gt;">
<text text-anchor="start" x="58.5" y="-100.1" font-family="Monospace" font-size="8.00">package</text>
</a>
</g>
</g>
<!-- cluster_2.cdinit -->
<g id="node2" class="node">
<title>cluster_2.cdinit</title>
<path fill="lightgray" stroke="black" d="M85.5,-55C85.5,-55 36.5,-55 36.5,-55 30.5,-55 24.5,-49 24.5,-43 24.5,-43 24.5,-28 24.5,-28 24.5,-22 30.5,-16 36.5,-16 36.5,-16 85.5,-16 85.5,-16 91.5,-16 97.5,-22 97.5,-28 97.5,-28 97.5,-43 97.5,-43 97.5,-49 91.5,-55 85.5,-55"/>
<g id="a_node2_3"><a xlink:href="cdinit/index.html" xlink:title="&lt;TABLE&gt;">
<text text-anchor="start" x="43" y="-39.5" font-family="Monospace" font-size="10.00">cdinit</text>
</a>
</g>
<g id="a_node2_4"><a xlink:href="packages.svg" xlink:title="&lt;TABLE&gt;">
<text text-anchor="start" x="36" y="-25.1" font-family="Monospace" font-size="8.00">all</text>
</a>
</g>
<g id="a_node2_5"><a xlink:href="packages_cdinit_recursive_all.svg" xlink:title="&lt;TABLE&gt;">
<text text-anchor="start" x="55" y="-25.1" font-family="Monospace" font-size="8.00">package</text>
</a>
</g>
</g>
<!-- cluster_2.cdinit_ros2&#45;&gt;cluster_2.cdinit -->
<g id="edge1" class="edge">
<title>cluster_2.cdinit_ros2&#45;&gt;cluster_2.cdinit</title>
<path fill="none" stroke="#ff0000" d="M61,-90.7C61,-82.95 61,-73.8 61,-65.24"/>
<polygon fill="#ff0000" stroke="#ff0000" points="64.5,-65.24 61,-55.24 57.5,-65.24 64.5,-65.24"/>
</g>
</g>
</svg>
