<?xml version="1.0" encoding="UTF-8" standalone="no"?>
<!DOCTYPE svg PUBLIC "-//W3C//DTD SVG 1.1//EN"
 "http://www.w3.org/Graphics/SVG/1.1/DTD/svg11.dtd">
<!-- Generated by graphviz version 2.43.0 (0)
 -->
<!-- Title: packages_ariles2_core_ws_recursive_all Pages: 1 -->
<svg width="1462pt" height="330pt"
 viewBox="0.00 0.00 1462.00 330.00" xmlns="http://www.w3.org/2000/svg" xmlns:xlink="http://www.w3.org/1999/xlink">
<g id="graph0" class="graph" transform="scale(1 1) rotate(0) translate(4 326)">
<title>packages_ariles2_core_ws_recursive_all</title>
<polygon fill="white" stroke="transparent" points="-4,4 -4,-326 1458,-326 1458,4 -4,4"/>
<g id="clust1" class="cluster">
<title>cluster_3</title>
<polygon fill="none" stroke="black" points="356,-8 356,-161 1446,-161 1446,-8 356,-8"/>
<text text-anchor="middle" x="901" y="-145.8" font-family="Monospace" font-size="14.00">ariles</text>
</g>
<g id="clust2" class="cluster">
<title>cluster_0</title>
<polygon fill="none" stroke="black" points="8,-83 8,-314 348,-314 348,-83 8,-83"/>
<text text-anchor="middle" x="178" y="-298.8" font-family="Monospace" font-size="14.00">intrometry</text>
</g>
<!-- cluster_3.ariles2_pugixml_ws -->
<g id="node1" class="node">
<title>cluster_3.ariles2_pugixml_ws</title>
<path fill="lightgray" stroke="black" d="M1096,-130C1096,-130 988,-130 988,-130 982,-130 976,-124 976,-118 976,-118 976,-103 976,-103 976,-97 982,-91 988,-91 988,-91 1096,-91 1096,-91 1102,-91 1108,-97 1108,-103 1108,-103 1108,-118 1108,-118 1108,-124 1102,-130 1096,-130"/>
<g id="a_node1_0"><a xlink:href="ariles2_pugixml_ws/index.html" xlink:title="&lt;TABLE&gt;">
<text text-anchor="start" x="987.5" y="-114.5" font-family="Monospace" font-size="10.00">ariles2_pugixml_ws</text>
</a>
</g>
<g id="a_node1_1"><a xlink:href="packages.svg" xlink:title="&lt;TABLE&gt;">
<text text-anchor="start" x="1001.5" y="-100.1" font-family="Monospace" font-size="8.00">all</text>
</a>
</g>
<g id="a_node1_2"><a xlink:href="packages_ariles2_pugixml_ws_recursive_all.svg" xlink:title="&lt;TABLE&gt;">
<text text-anchor="start" x="1050" y="-100.1" font-family="Monospace" font-size="8.00">package</text>
</a>
</g>
</g>
<!-- cluster_3.ariles2_core_ws -->
<g id="node3" class="node">
<title>cluster_3.ariles2_core_ws</title>
<path fill="lightgray" stroke="black" d="M854,-55C854,-55 764,-55 764,-55 758,-55 752,-49 752,-43 752,-43 752,-28 752,-28 752,-22 758,-16 764,-16 764,-16 854,-16 854,-16 860,-16 866,-22 866,-28 866,-28 866,-43 866,-43 866,-49 860,-55 854,-55"/>
<g id="a_node3_3"><a xlink:href="ariles2_core_ws/index.html" xlink:title="&lt;TABLE&gt;">
<text text-anchor="start" x="763.5" y="-39.5" font-family="Monospace" font-size="10.00">ariles2_core_ws</text>
</a>
</g>
<g id="a_node3_4"><a xlink:href="packages.svg" xlink:title="&lt;TABLE&gt;">
<text text-anchor="start" x="773" y="-25.1" font-family="Monospace" font-size="8.00">all</text>
</a>
</g>
<g id="a_node3_5"><a xlink:href="packages_ariles2_core_ws_recursive_all.svg" xlink:title="&lt;TABLE&gt;">
<text text-anchor="start" x="812.5" y="-25.1" font-family="Monospace" font-size="8.00">package</text>
</a>
</g>
</g>
<!-- cluster_3.ariles2_pugixml_ws&#45;&gt;cluster_3.ariles2_core_ws -->
<g id="edge7" class="edge">
<title>cluster_3.ariles2_pugixml_ws&#45;&gt;cluster_3.ariles2_core_ws</title>
<path fill="none" stroke="#0000ff" d="M990.15,-91.83C982.32,-89.12 974.3,-86.41 966.69,-83.95 937.02,-74.35 903.93,-64.49 875.75,-56.33"/>
<path fill="none" stroke="#ff0000" d="M990.81,-89.94C982.96,-87.23 974.94,-84.52 967.31,-82.05 937.6,-72.44 904.51,-62.57 876.3,-54.41"/>
<polygon fill="#0000ff" stroke="#0000ff" points="876.85,-51.96 866.27,-52.56 874.91,-58.69 876.85,-51.96"/>
</g>
<!-- cluster_3.ariles2_rapidjson_ws -->
<g id="node2" class="node">
<title>cluster_3.ariles2_rapidjson_ws</title>
<path fill="lightgray" stroke="black" d="M946,-130C946,-130 826,-130 826,-130 820,-130 814,-124 814,-118 814,-118 814,-103 814,-103 814,-97 820,-91 826,-91 826,-91 946,-91 946,-91 952,-91 958,-97 958,-103 958,-103 958,-118 958,-118 958,-124 952,-130 946,-130"/>
<g id="a_node2_6"><a xlink:href="ariles2_rapidjson_ws/index.html" xlink:title="&lt;TABLE&gt;">
<text text-anchor="start" x="825.5" y="-114.5" font-family="Monospace" font-size="10.00">ariles2_rapidjson_ws</text>
</a>
</g>
<g id="a_node2_7"><a xlink:href="packages.svg" xlink:title="&lt;TABLE&gt;">
<text text-anchor="start" x="842.5" y="-100.1" font-family="Monospace" font-size="8.00">all</text>
</a>
</g>
<g id="a_node2_8"><a xlink:href="packages_ariles2_rapidjson_ws_recursive_all.svg" xlink:title="&lt;TABLE&gt;">
<text text-anchor="start" x="897" y="-100.1" font-family="Monospace" font-size="8.00">package</text>
</a>
</g>
</g>
<!-- cluster_3.ariles2_rapidjson_ws&#45;&gt;cluster_3.ariles2_core_ws -->
<g id="edge1" class="edge">
<title>cluster_3.ariles2_rapidjson_ws&#45;&gt;cluster_3.ariles2_core_ws</title>
<path fill="none" stroke="#0000ff" d="M865.48,-91.43C856.32,-82.74 845.3,-72.29 835.39,-62.89"/>
<path fill="none" stroke="#ff0000" d="M866.86,-89.97C857.7,-81.29 846.68,-70.84 836.76,-61.44"/>
<polygon fill="#0000ff" stroke="#0000ff" points="838.43,-59.58 828.76,-55.24 833.61,-64.66 838.43,-59.58"/>
</g>
<!-- cluster_3.ariles2_octave_ws -->
<g id="node4" class="node">
<title>cluster_3.ariles2_octave_ws</title>
<path fill="lightgray" stroke="black" d="M784,-130C784,-130 682,-130 682,-130 676,-130 670,-124 670,-118 670,-118 670,-103 670,-103 670,-97 676,-91 682,-91 682,-91 784,-91 784,-91 790,-91 796,-97 796,-103 796,-103 796,-118 796,-118 796,-124 790,-130 784,-130"/>
<g id="a_node4_9"><a xlink:href="ariles2_octave_ws/index.html" xlink:title="&lt;TABLE&gt;">
<text text-anchor="start" x="681.5" y="-114.5" font-family="Monospace" font-size="10.00">ariles2_octave_ws</text>
</a>
</g>
<g id="a_node4_10"><a xlink:href="packages.svg" xlink:title="&lt;TABLE&gt;">
<text text-anchor="start" x="694" y="-100.1" font-family="Monospace" font-size="8.00">all</text>
</a>
</g>
<g id="a_node4_11"><a xlink:href="packages_ariles2_octave_ws_recursive_all.svg" xlink:title="&lt;TABLE&gt;">
<text text-anchor="start" x="739.5" y="-100.1" font-family="Monospace" font-size="8.00">package</text>
</a>
</g>
</g>
<!-- cluster_3.ariles2_octave_ws&#45;&gt;cluster_3.ariles2_core_ws -->
<g id="edge5" class="edge">
<title>cluster_3.ariles2_octave_ws&#45;&gt;cluster_3.ariles2_core_ws</title>
<path fill="none" stroke="#0000ff" d="M751.88,-89.98C760.92,-81.29 771.8,-70.84 781.58,-61.45"/>
<path fill="none" stroke="#ff0000" d="M753.26,-91.42C762.31,-82.74 773.19,-72.29 782.97,-62.89"/>
<polygon fill="#0000ff" stroke="#0000ff" points="784.71,-64.69 789.49,-55.24 779.86,-59.64 784.71,-64.69"/>
</g>
<!-- cluster_3.ariles2_graphviz_ws -->
<g id="node5" class="node">
<title>cluster_3.ariles2_graphviz_ws</title>
<path fill="lightgray" stroke="black" d="M640,-130C640,-130 526,-130 526,-130 520,-130 514,-124 514,-118 514,-118 514,-103 514,-103 514,-97 520,-91 526,-91 526,-91 640,-91 640,-91 646,-91 652,-97 652,-103 652,-103 652,-118 652,-118 652,-124 646,-130 640,-130"/>
<g id="a_node5_12"><a xlink:href="ariles2_graphviz_ws/index.html" xlink:title="&lt;TABLE&gt;">
<text text-anchor="start" x="525.5" y="-114.5" font-family="Monospace" font-size="10.00">ariles2_graphviz_ws</text>
</a>
</g>
<g id="a_node5_13"><a xlink:href="packages.svg" xlink:title="&lt;TABLE&gt;">
<text text-anchor="start" x="541" y="-100.1" font-family="Monospace" font-size="8.00">all</text>
</a>
</g>
<g id="a_node5_14"><a xlink:href="packages_ariles2_graphviz_ws_recursive_all.svg" xlink:title="&lt;TABLE&gt;">
<text text-anchor="start" x="592.5" y="-100.1" font-family="Monospace" font-size="8.00">package</text>
</a>
</g>
</g>
<!-- cluster_3.ariles2_graphviz_ws&#45;&gt;cluster_3.ariles2_core_ws -->
<g id="edge8" class="edge">
<title>cluster_3.ariles2_graphviz_ws&#45;&gt;cluster_3.ariles2_core_ws</title>
<path fill="none" stroke="#0000ff" d="M636.76,-90C644.77,-87.3 652.94,-84.58 660.69,-82.05 687.26,-73.36 716.6,-64.08 742.1,-56.11"/>
<path fill="none" stroke="#ff0000" d="M637.39,-91.9C645.4,-89.2 653.57,-86.48 661.31,-83.95 687.86,-75.27 717.2,-65.99 742.7,-58.02"/>
<polygon fill="#0000ff" stroke="#0000ff" points="743.47,-60.4 751.97,-54.08 741.39,-53.72 743.47,-60.4"/>
</g>
<!-- cluster_3.ariles2_yamlcpp_ws -->
<g id="node6" class="node">
<title>cluster_3.ariles2_yamlcpp_ws</title>
<path fill="lightgray" stroke="black" d="M484,-130C484,-130 376,-130 376,-130 370,-130 364,-124 364,-118 364,-118 364,-103 364,-103 364,-97 370,-91 376,-91 376,-91 484,-91 484,-91 490,-91 496,-97 496,-103 496,-103 496,-118 496,-118 496,-124 490,-130 484,-130"/>
<g id="a_node6_15"><a xlink:href="ariles2_yamlcpp_ws/index.html" xlink:title="&lt;TABLE&gt;">
<text text-anchor="start" x="375.5" y="-114.5" font-family="Monospace" font-size="10.00">ariles2_yamlcpp_ws</text>
</a>
</g>
<g id="a_node6_16"><a xlink:href="packages.svg" xlink:title="&lt;TABLE&gt;">
<text text-anchor="start" x="389.5" y="-100.1" font-family="Monospace" font-size="8.00">all</text>
</a>
</g>
<g id="a_node6_17"><a xlink:href="packages_ariles2_yamlcpp_ws_recursive_all.svg" xlink:title="&lt;TABLE&gt;">
<text text-anchor="start" x="438" y="-100.1" font-family="Monospace" font-size="8.00">package</text>
</a>
</g>
</g>
<!-- cluster_3.ariles2_yamlcpp_ws&#45;&gt;cluster_3.ariles2_core_ws -->
<g id="edge3" class="edge">
<title>cluster_3.ariles2_yamlcpp_ws&#45;&gt;cluster_3.ariles2_core_ws</title>
<path fill="none" stroke="#0000ff" d="M478.09,-89.96C486.88,-87.01 496,-84.23 504.76,-82.03 585.07,-61.89 679.5,-49.1 741.61,-42.13"/>
<path fill="none" stroke="#ff0000" d="M478.73,-91.85C487.46,-88.92 496.59,-86.14 505.24,-83.97 585.34,-63.88 679.77,-51.08 741.83,-44.11"/>
<polygon fill="#0000ff" stroke="#0000ff" points="742.22,-46.58 751.78,-42.01 741.45,-39.63 742.22,-46.58"/>
</g>
<!-- cluster_3.ariles2_namevalue2_ws -->
<g id="node7" class="node">
<title>cluster_3.ariles2_namevalue2_ws</title>
<path fill="lightgray" stroke="black" d="M1426,-130C1426,-130 1300,-130 1300,-130 1294,-130 1288,-124 1288,-118 1288,-118 1288,-103 1288,-103 1288,-97 1294,-91 1300,-91 1300,-91 1426,-91 1426,-91 1432,-91 1438,-97 1438,-103 1438,-103 1438,-118 1438,-118 1438,-124 1432,-130 1426,-130"/>
<g id="a_node7_18"><a xlink:href="ariles2_namevalue2_ws/index.html" xlink:title="&lt;TABLE&gt;">
<text text-anchor="start" x="1299.5" y="-114.5" font-family="Monospace" font-size="10.00">ariles2_namevalue2_ws</text>
</a>
</g>
<g id="a_node7_19"><a xlink:href="packages.svg" xlink:title="&lt;TABLE&gt;">
<text text-anchor="start" x="1318" y="-100.1" font-family="Monospace" font-size="8.00">all</text>
</a>
</g>
<g id="a_node7_20"><a xlink:href="packages_ariles2_namevalue2_ws_recursive_all.svg" xlink:title="&lt;TABLE&gt;">
<text text-anchor="start" x="1375.5" y="-100.1" font-family="Monospace" font-size="8.00">package</text>
</a>
</g>
</g>
<!-- cluster_3.ariles2_namevalue2_ws&#45;&gt;cluster_3.ariles2_core_ws -->
<g id="edge6" class="edge">
<title>cluster_3.ariles2_namevalue2_ws&#45;&gt;cluster_3.ariles2_core_ws</title>
<path fill="none" stroke="#0000ff" d="M1309.83,-91.95C1299.63,-88.9 1288.93,-86.05 1278.8,-83.98 1137.44,-55.01 968.14,-43.9 876.32,-39.79"/>
<path fill="none" stroke="#ff0000" d="M1310.4,-90.03C1300.15,-86.97 1289.44,-84.12 1279.2,-82.02 1137.57,-53.01 968.28,-41.9 876.41,-37.79"/>
<polygon fill="#0000ff" stroke="#0000ff" points="876.51,-35.29 866.36,-38.35 876.2,-42.28 876.51,-35.29"/>
</g>
<!-- cluster_3.ariles2_ros2param_ws -->
<g id="node8" class="node">
<title>cluster_3.ariles2_ros2param_ws</title>
<path fill="lightgray" stroke="black" d="M1258,-130C1258,-130 1138,-130 1138,-130 1132,-130 1126,-124 1126,-118 1126,-118 1126,-103 1126,-103 1126,-97 1132,-91 1138,-91 1138,-91 1258,-91 1258,-91 1264,-91 1270,-97 1270,-103 1270,-103 1270,-118 1270,-118 1270,-124 1264,-130 1258,-130"/>
<g id="a_node8_21"><a xlink:href="ariles2_ros2param_ws/index.html" xlink:title="&lt;TABLE&gt;">
<text text-anchor="start" x="1137.5" y="-114.5" font-family="Monospace" font-size="10.00">ariles2_ros2param_ws</text>
</a>
</g>
<g id="a_node8_22"><a xlink:href="packages.svg" xlink:title="&lt;TABLE&gt;">
<text text-anchor="start" x="1154.5" y="-100.1" font-family="Monospace" font-size="8.00">all</text>
</a>
</g>
<g id="a_node8_23"><a xlink:href="packages_ariles2_ros2param_ws_recursive_all.svg" xlink:title="&lt;TABLE&gt;">
<text text-anchor="start" x="1209" y="-100.1" font-family="Monospace" font-size="8.00">package</text>
</a>
</g>
</g>
<!-- cluster_3.ariles2_ros2param_ws&#45;&gt;cluster_3.ariles2_core_ws -->
<g id="edge4" class="edge">
<title>cluster_3.ariles2_ros2param_ws&#45;&gt;cluster_3.ariles2_core_ws</title>
<path fill="none" stroke="#0000ff" d="M1145.34,-91.92C1135.91,-88.98 1126.08,-86.18 1116.77,-83.97 1035,-64.56 938.88,-51.57 876.08,-44.38"/>
<path fill="none" stroke="#ff0000" d="M1145.94,-90.01C1136.46,-87.06 1126.63,-84.26 1117.23,-82.03 1035.27,-62.58 939.14,-49.59 876.31,-42.39"/>
<polygon fill="#0000ff" stroke="#0000ff" points="876.36,-39.88 866.03,-42.23 875.57,-46.83 876.36,-39.88"/>
</g>
<!-- cluster_0.intrometry_pjmsg_mcap -->
<g id="node9" class="node">
<title>cluster_0.intrometry_pjmsg_mcap</title>
<path fill="lightgray" stroke="black" d="M154,-208C154,-208 28,-208 28,-208 22,-208 16,-202 16,-196 16,-196 16,-181 16,-181 16,-175 22,-169 28,-169 28,-169 154,-169 154,-169 160,-169 166,-175 166,-181 166,-181 166,-196 166,-196 166,-202 160,-208 154,-208"/>
<g id="a_node9_24"><a xlink:href="intrometry_pjmsg_mcap/index.html" xlink:title="&lt;TABLE&gt;">
<text text-anchor="start" x="27.5" y="-192.5" font-family="Monospace" font-size="10.00">intrometry_pjmsg_mcap</text>
</a>
</g>
<g id="a_node9_25"><a xlink:href="packages.svg" xlink:title="&lt;TABLE&gt;">
<text text-anchor="start" x="46" y="-178.1" font-family="Monospace" font-size="8.00">all</text>
</a>
</g>
<g id="a_node9_26"><a xlink:href="packages_intrometry_pjmsg_mcap_recursive_all.svg" xlink:title="&lt;TABLE&gt;">
<text text-anchor="start" x="103.5" y="-178.1" font-family="Monospace" font-size="8.00">package</text>
</a>
</g>
</g>
<!-- cluster_0.intrometry_pjmsg_mcap&#45;&gt;cluster_3.ariles2_namevalue2_ws -->
<g id="edge12" class="edge">
<title>cluster_0.intrometry_pjmsg_mcap&#45;&gt;cluster_3.ariles2_namevalue2_ws</title>
<path fill="none" stroke="#0000ff" d="M166.29,-169.12C169.19,-168.7 172.05,-168.33 174.89,-168.01 235.97,-161.14 1219.9,-176.35 1278.73,-160.04 1296.93,-155.03 1315.43,-144.81 1330.3,-135.01"/>
<path fill="none" stroke="#ff0000" d="M166.57,-171.1C169.45,-170.68 172.31,-170.31 175.11,-169.99 235.94,-163.14 1219.87,-178.35 1279.27,-161.96 1297.89,-156.78 1316.4,-146.56 1331.4,-136.68"/>
<polygon fill="#0000ff" stroke="#0000ff" points="1332.92,-138.67 1339.2,-130.14 1328.97,-132.89 1332.92,-138.67"/>
</g>
<!-- cluster_0.intrometry_frontend -->
<g id="node11" class="node">
<title>cluster_0.intrometry_frontend</title>
<path fill="lightgray" stroke="black" d="M319,-130C319,-130 205,-130 205,-130 199,-130 193,-124 193,-118 193,-118 193,-103 193,-103 193,-97 199,-91 205,-91 205,-91 319,-91 319,-91 325,-91 331,-97 331,-103 331,-103 331,-118 331,-118 331,-124 325,-130 319,-130"/>
<g id="a_node11_27"><a xlink:href="intrometry_frontend/index.html" xlink:title="&lt;TABLE&gt;">
<text text-anchor="start" x="204.5" y="-114.5" font-family="Monospace" font-size="10.00">intrometry_frontend</text>
</a>
</g>
<g id="a_node11_28"><a xlink:href="packages.svg" xlink:title="&lt;TABLE&gt;">
<text text-anchor="start" x="220" y="-100.1" font-family="Monospace" font-size="8.00">all</text>
</a>
</g>
<g id="a_node11_29"><a xlink:href="packages_intrometry_frontend_recursive_all.svg" xlink:title="&lt;TABLE&gt;">
<text text-anchor="start" x="271.5" y="-100.1" font-family="Monospace" font-size="8.00">package</text>
</a>
</g>
</g>
<!-- cluster_0.intrometry_pjmsg_mcap&#45;&gt;cluster_0.intrometry_frontend -->
<g id="edge10" class="edge">
<title>cluster_0.intrometry_pjmsg_mcap&#45;&gt;cluster_0.intrometry_frontend</title>
<path fill="none" stroke="#0000ff" d="M132.43,-167.99C156.01,-157.51 185.65,-144.34 210.59,-133.25"/>
<path fill="none" stroke="#ff0000" d="M133.24,-169.82C156.82,-159.34 186.47,-146.16 211.41,-135.08"/>
<polygon fill="#0000ff" stroke="#0000ff" points="212.59,-137.29 220.3,-130.03 209.74,-130.89 212.59,-137.29"/>
</g>
<!-- cluster_0.intrometry_tests -->
<g id="node10" class="node">
<title>cluster_0.intrometry_tests</title>
<path fill="lightgray" stroke="black" d="M224,-283C224,-283 128,-283 128,-283 122,-283 116,-277 116,-271 116,-271 116,-256 116,-256 116,-250 122,-244 128,-244 128,-244 224,-244 224,-244 230,-244 236,-250 236,-256 236,-256 236,-271 236,-271 236,-277 230,-283 224,-283"/>
<g id="a_node10_30"><a xlink:href="intrometry_tests/index.html" xlink:title="&lt;TABLE&gt;">
<text text-anchor="start" x="127.5" y="-267.5" font-family="Monospace" font-size="10.00">intrometry_tests</text>
</a>
</g>
<g id="a_node10_31"><a xlink:href="packages.svg" xlink:title="&lt;TABLE&gt;">
<text text-anchor="start" x="138.5" y="-253.1" font-family="Monospace" font-size="8.00">all</text>
</a>
</g>
<g id="a_node10_32"><a xlink:href="packages_intrometry_tests_recursive_all.svg" xlink:title="&lt;TABLE&gt;">
<text text-anchor="start" x="181" y="-253.1" font-family="Monospace" font-size="8.00">package</text>
</a>
</g>
</g>
<!-- cluster_0.intrometry_tests&#45;&gt;cluster_0.intrometry_pjmsg_mcap -->
<g id="edge14" class="edge">
<title>cluster_0.intrometry_tests&#45;&gt;cluster_0.intrometry_pjmsg_mcap</title>
<path fill="none" stroke="#0000ff" d="M153.46,-244.46C143.25,-235.69 130.94,-225.12 119.92,-215.65"/>
<path fill="none" stroke="#ff0000" d="M154.76,-242.94C144.55,-234.17 132.24,-223.6 121.22,-214.13"/>
<polygon fill="#0000ff" stroke="#0000ff" points="122.68,-212.1 112.82,-208.24 118.12,-217.41 122.68,-212.1"/>
</g>
<!-- cluster_0.intrometry_pjmsg_topic -->
<g id="node12" class="node">
<title>cluster_0.intrometry_pjmsg_topic</title>
<path fill="lightgray" stroke="black" d="M328,-208C328,-208 196,-208 196,-208 190,-208 184,-202 184,-196 184,-196 184,-181 184,-181 184,-175 190,-169 196,-169 196,-169 328,-169 328,-169 334,-169 340,-175 340,-181 340,-181 340,-196 340,-196 340,-202 334,-208 328,-208"/>
<g id="a_node12_33"><a xlink:href="intrometry_pjmsg_topic/index.html" xlink:title="&lt;TABLE&gt;">
<text text-anchor="start" x="195.5" y="-192.5" font-family="Monospace" font-size="10.00">intrometry_pjmsg_topic</text>
</a>
</g>
<g id="a_node12_34"><a xlink:href="packages.svg" xlink:title="&lt;TABLE&gt;">
<text text-anchor="start" x="215.5" y="-178.1" font-family="Monospace" font-size="8.00">all</text>
</a>
</g>
<g id="a_node12_35"><a xlink:href="packages_intrometry_pjmsg_topic_recursive_all.svg" xlink:title="&lt;TABLE&gt;">
<text text-anchor="start" x="276" y="-178.1" font-family="Monospace" font-size="8.00">package</text>
</a>
</g>
</g>
<!-- cluster_0.intrometry_tests&#45;&gt;cluster_0.intrometry_pjmsg_topic -->
<g id="edge13" class="edge">
<title>cluster_0.intrometry_tests&#45;&gt;cluster_0.intrometry_pjmsg_topic</title>
<path fill="none" stroke="#0000ff" d="M197.5,-242.94C207.83,-234.17 220.28,-223.6 231.44,-214.13"/>
<path fill="none" stroke="#ff0000" d="M198.79,-244.46C209.13,-235.69 221.58,-225.12 232.73,-215.66"/>
<polygon fill="#0000ff" stroke="#0000ff" points="234.57,-217.38 239.93,-208.24 230.04,-212.04 234.57,-217.38"/>
</g>
<!-- cluster_0.intrometry_frontend&#45;&gt;cluster_3.ariles2_core_ws -->
<g id="edge2" class="edge">
<title>cluster_0.intrometry_frontend&#45;&gt;cluster_3.ariles2_core_ws</title>
<path fill="none" stroke="#0000ff" d="M318.95,-89.97C329.78,-86.95 341.05,-84.13 351.81,-82.02 488.88,-55.11 652.16,-43.26 741.78,-38.45"/>
<path fill="none" stroke="#ff0000" d="M319.49,-91.9C330.27,-88.89 341.53,-86.07 352.19,-83.98 489.02,-57.11 652.3,-45.25 741.89,-40.44"/>
<polygon fill="#0000ff" stroke="#0000ff" points="742.06,-42.94 751.86,-38.92 741.69,-35.95 742.06,-42.94"/>
</g>
<!-- cluster_0.intrometry_pjmsg_topic&#45;&gt;cluster_3.ariles2_namevalue2_ws -->
<g id="edge11" class="edge">
<title>cluster_0.intrometry_pjmsg_topic&#45;&gt;cluster_3.ariles2_namevalue2_ws</title>
<path fill="none" stroke="#0000ff" d="M340.08,-186.72C562.61,-187.02 1189.86,-185.56 1278.72,-160.04 1296.74,-154.9 1315.1,-144.77 1329.92,-135.06"/>
<path fill="none" stroke="#ff0000" d="M340.07,-188.72C562.62,-189.02 1189.87,-187.56 1279.28,-161.96 1297.71,-156.65 1316.07,-146.52 1331.02,-136.74"/>
<polygon fill="#0000ff" stroke="#0000ff" points="1332.49,-138.76 1338.81,-130.25 1328.57,-132.97 1332.49,-138.76"/>
</g>
<!-- cluster_0.intrometry_pjmsg_topic&#45;&gt;cluster_0.intrometry_frontend -->
<g id="edge9" class="edge">
<title>cluster_0.intrometry_pjmsg_topic&#45;&gt;cluster_0.intrometry_frontend</title>
<path fill="none" stroke="#0000ff" d="M261,-168.71C261,-160.15 261,-149.83 261,-140.32"/>
<path fill="none" stroke="#ff0000" d="M263,-168.71C263,-160.15 263,-149.83 263,-140.32"/>
<polygon fill="#0000ff" stroke="#0000ff" points="265.5,-140.07 262,-130.07 258.5,-140.07 265.5,-140.07"/>
</g>
</g>
</svg>
