<?xml version="1.0" encoding="UTF-8" standalone="no"?>
<!DOCTYPE svg PUBLIC "-//W3C//DTD SVG 1.1//EN"
 "http://www.w3.org/Graphics/SVG/1.1/DTD/svg11.dtd">
<!-- Generated by graphviz version 2.43.0 (0)
 -->
<!-- Title: packages_ariles2_yamlcpp_ws_recursive_all Pages: 1 -->
<svg width="172pt" height="177pt"
 viewBox="0.00 0.00 172.00 177.00" xmlns="http://www.w3.org/2000/svg" xmlns:xlink="http://www.w3.org/1999/xlink">
<g id="graph0" class="graph" transform="scale(1 1) rotate(0) translate(4 173)">
<title>packages_ariles2_yamlcpp_ws_recursive_all</title>
<polygon fill="white" stroke="transparent" points="-4,4 -4,-173 168,-173 168,4 -4,4"/>
<g id="clust1" class="cluster">
<title>cluster_3</title>
<polygon fill="none" stroke="black" points="8,-8 8,-161 156,-161 156,-8 8,-8"/>
<text text-anchor="middle" x="82" y="-145.8" font-family="Monospace" font-size="14.00">ariles</text>
</g>
<!-- cluster_3.ariles2_core_ws -->
<g id="node1" class="node">
<title>cluster_3.ariles2_core_ws</title>
<path fill="lightgray" stroke="black" d="M127,-55C127,-55 37,-55 37,-55 31,-55 25,-49 25,-43 25,-43 25,-28 25,-28 25,-22 31,-16 37,-16 37,-16 127,-16 127,-16 133,-16 139,-22 139,-28 139,-28 139,-43 139,-43 139,-49 133,-55 127,-55"/>
<g id="a_node1_0"><a xlink:href="ariles2_core_ws/index.html" xlink:title="&lt;TABLE&gt;">
<text text-anchor="start" x="36.5" y="-39.5" font-family="Monospace" font-size="10.00">ariles2_core_ws</text>
</a>
</g>
<g id="a_node1_1"><a xlink:href="packages.svg" xlink:title="&lt;TABLE&gt;">
<text text-anchor="start" x="46" y="-25.1" font-family="Monospace" font-size="8.00">all</text>
</a>
</g>
<g id="a_node1_2"><a xlink:href="packages_ariles2_core_ws_recursive_all.svg" xlink:title="&lt;TABLE&gt;">
<text text-anchor="start" x="85.5" y="-25.1" font-family="Monospace" font-size="8.00">package</text>
</a>
</g>
</g>
<!-- cluster_3.ariles2_yamlcpp_ws -->
<g id="node2" class="node">
<title>cluster_3.ariles2_yamlcpp_ws</title>
<path fill="lightgray" stroke="black" d="M136,-130C136,-130 28,-130 28,-130 22,-130 16,-124 16,-118 16,-118 16,-103 16,-103 16,-97 22,-91 28,-91 28,-91 136,-91 136,-91 142,-91 148,-97 148,-103 148,-103 148,-118 148,-118 148,-124 142,-130 136,-130"/>
<g id="a_node2_3"><a xlink:href="ariles2_yamlcpp_ws/index.html" xlink:title="&lt;TABLE&gt;">
<text text-anchor="start" x="27.5" y="-114.5" font-family="Monospace" font-size="10.00">ariles2_yamlcpp_ws</text>
</a>
</g>
<g id="a_node2_4"><a xlink:href="packages.svg" xlink:title="&lt;TABLE&gt;">
<text text-anchor="start" x="41.5" y="-100.1" font-family="Monospace" font-size="8.00">all</text>
</a>
</g>
<g id="a_node2_5"><a xlink:href="packages_ariles2_yamlcpp_ws_recursive_all.svg" xlink:title="&lt;TABLE&gt;">
<text text-anchor="start" x="90" y="-100.1" font-family="Monospace" font-size="8.00">package</text>
</a>
</g>
</g>
<!-- cluster_3.ariles2_yamlcpp_ws&#45;&gt;cluster_3.ariles2_core_ws -->
<g id="edge1" class="edge">
<title>cluster_3.ariles2_yamlcpp_ws&#45;&gt;cluster_3.ariles2_core_ws</title>
<path fill="none" stroke="#0000ff" d="M81,-90.7C81,-82.95 81,-73.8 81,-65.24"/>
<path fill="none" stroke="#ff0000" d="M83,-90.7C83,-82.95 83,-73.8 83,-65.24"/>
<polygon fill="#0000ff" stroke="#0000ff" points="85.5,-65.24 82,-55.24 78.5,-65.24 85.5,-65.24"/>
</g>
</g>
</svg>
