<?xml version="1.0" encoding="UTF-8" standalone="no"?>
<!DOCTYPE svg PUBLIC "-//W3C//DTD SVG 1.1//EN"
 "http://www.w3.org/Graphics/SVG/1.1/DTD/svg11.dtd">
<!-- Generated by graphviz version 2.43.0 (0)
 -->
<!-- Title: graphname Pages: 1 -->
<svg width="2360pt" height="318pt"
 viewBox="0.00 0.00 2359.89 318.00" xmlns="http://www.w3.org/2000/svg" xmlns:xlink="http://www.w3.org/1999/xlink">
<g id="graph0" class="graph" transform="scale(1 1) rotate(0) translate(4 314)">
<title>graphname</title>
<polygon fill="white" stroke="transparent" points="-4,4 -4,-314 2355.89,-314 2355.89,4 -4,4"/>
<g id="clust1" class="cluster">
<title>cluster_0</title>
<polygon fill="none" stroke="black" points="8,-80 8,-302 530,-302 530,-80 8,-80"/>
<text text-anchor="middle" x="269" y="-286.8" font-family="Times,serif" font-size="14.00">intrometry</text>
</g>
<g id="clust2" class="cluster">
<title>cluster_2</title>
<polygon fill="none" stroke="black" points="538,-8 538,-155 2152,-155 2152,-8 538,-8"/>
<text text-anchor="middle" x="1345" y="-139.8" font-family="Times,serif" font-size="14.00">ariles</text>
</g>
<!-- intrometry_frontend -->
<g id="node1" class="node">
<title>intrometry_frontend</title>
<g id="a_node1"><a xlink:href="./intrometry_frontend/index.html" xlink:title="intrometry_frontend">
<ellipse fill="none" stroke="black" cx="399" cy="-106" rx="105.08" ry="18"/>
<text text-anchor="middle" x="399" y="-102.3" font-family="Times,serif" font-size="14.00">intrometry_frontend</text>
</a>
</g>
</g>
<!-- ariles2_core_ws -->
<g id="node8" class="node">
<title>ariles2_core_ws</title>
<g id="a_node8"><a xlink:href="./ariles2_core_ws/index.html" xlink:title="ariles2_core_ws">
<ellipse fill="none" stroke="black" cx="1207" cy="-34" rx="83.69" ry="18"/>
<text text-anchor="middle" x="1207" y="-30.3" font-family="Times,serif" font-size="14.00">ariles2_core_ws</text>
</a>
</g>
</g>
<!-- intrometry_frontend&#45;&gt;ariles2_core_ws -->
<g id="edge10" class="edge">
<title>intrometry_frontend&#45;&gt;ariles2_core_ws</title>
<path fill="none" stroke="#0000ff" d="M462.44,-90.66C484.92,-86.36 510.42,-81.96 533.88,-79.01 740.26,-53.09 984.16,-41.47 1114.25,-36.79"/>
<path fill="none" stroke="#ff0000" d="M462.82,-92.62C485.26,-88.33 510.76,-83.93 534.12,-80.99 740.36,-55.09 984.25,-43.47 1114.32,-38.79"/>
<polygon fill="#0000ff" stroke="#0000ff" points="1114.73,-41.27 1124.6,-37.42 1114.48,-34.28 1114.73,-41.27"/>
</g>
<!-- intrometry_pjmsg_topic -->
<g id="node2" class="node">
<title>intrometry_pjmsg_topic</title>
<g id="a_node2"><a xlink:href="./intrometry_pjmsg_topic/index.html" xlink:title="intrometry_pjmsg_topic">
<ellipse fill="none" stroke="black" cx="137" cy="-181" rx="120.78" ry="18"/>
<text text-anchor="middle" x="137" y="-177.3" font-family="Times,serif" font-size="14.00">intrometry_pjmsg_topic</text>
</a>
</g>
</g>
<!-- intrometry_pjmsg_topic&#45;&gt;intrometry_frontend -->
<g id="edge6" class="edge">
<title>intrometry_pjmsg_topic&#45;&gt;intrometry_frontend</title>
<path fill="none" stroke="#0000ff" d="M191.02,-163.91C233.24,-152.15 291.88,-135.81 336.09,-123.49"/>
<path fill="none" stroke="#ff0000" d="M191.55,-165.84C233.78,-154.07 292.41,-137.74 336.62,-125.42"/>
<polygon fill="#0000ff" stroke="#0000ff" points="337.43,-127.79 346.13,-121.73 335.55,-121.04 337.43,-127.79"/>
</g>
<!-- thread_supervisor -->
<g id="node5" class="node">
<title>thread_supervisor</title>
<g id="a_node5"><a xlink:href="./thread_supervisor/index.html" xlink:title="thread_supervisor">
<ellipse fill="none" stroke="black" cx="2257" cy="-106" rx="94.78" ry="18"/>
<text text-anchor="middle" x="2257" y="-102.3" font-family="Times,serif" font-size="14.00">thread_supervisor</text>
</a>
</g>
</g>
<!-- intrometry_pjmsg_topic&#45;&gt;thread_supervisor -->
<g id="edge5" class="edge">
<title>intrometry_pjmsg_topic&#45;&gt;thread_supervisor</title>
<path fill="none" stroke="#0000ff" d="M218.67,-167.73C234.66,-165.77 251.33,-164.05 267,-163 319.35,-159.48 2104.84,-166.65 2156,-155 2179.1,-149.74 2203.13,-138.59 2221.95,-128.35"/>
<polygon fill="#0000ff" stroke="#0000ff" points="2223.72,-131.37 2230.74,-123.44 2220.31,-125.26 2223.72,-131.37"/>
</g>
<!-- ariles2_namevalue2_ws -->
<g id="node13" class="node">
<title>ariles2_namevalue2_ws</title>
<g id="a_node13"><a xlink:href="./ariles2_namevalue2_ws/index.html" xlink:title="ariles2_namevalue2_ws">
<ellipse fill="none" stroke="black" cx="1803" cy="-106" rx="120.48" ry="18"/>
<text text-anchor="middle" x="1803" y="-102.3" font-family="Times,serif" font-size="14.00">ariles2_namevalue2_ws</text>
</a>
</g>
</g>
<!-- intrometry_pjmsg_topic&#45;&gt;ariles2_namevalue2_ws -->
<g id="edge4" class="edge">
<title>intrometry_pjmsg_topic&#45;&gt;ariles2_namevalue2_ws</title>
<path fill="none" stroke="#0000ff" d="M218.9,-166.71C234.8,-164.77 251.34,-163.06 266.93,-162 344.94,-156.7 1596.15,-167.96 1672.82,-154.02 1702.43,-148.65 1734.34,-136.97 1759.04,-126.5"/>
<path fill="none" stroke="#ff0000" d="M219.14,-168.69C235.01,-166.76 251.55,-165.05 267.07,-164 344.92,-158.7 1596.14,-169.96 1673.18,-155.98 1703.12,-150.53 1735.03,-138.85 1759.82,-128.34"/>
<polygon fill="#0000ff" stroke="#0000ff" points="1761.1,-130.51 1768.89,-123.33 1758.32,-124.09 1761.1,-130.51"/>
</g>
<!-- intrometry_tests -->
<g id="node3" class="node">
<title>intrometry_tests</title>
<g id="a_node3"><a xlink:href="./intrometry_tests/index.html" xlink:title="intrometry_tests">
<ellipse fill="none" stroke="black" cx="399" cy="-253" rx="88.28" ry="18"/>
<text text-anchor="middle" x="399" y="-249.3" font-family="Times,serif" font-size="14.00">intrometry_tests</text>
</a>
</g>
</g>
<!-- intrometry_tests&#45;&gt;intrometry_pjmsg_topic -->
<g id="edge1" class="edge">
<title>intrometry_tests&#45;&gt;intrometry_pjmsg_topic</title>
<path fill="none" stroke="#0000ff" d="M347.29,-239.22C306,-228.19 247.75,-212.62 202.98,-200.66"/>
<path fill="none" stroke="#ff0000" d="M347.81,-237.29C306.52,-226.26 248.27,-210.69 203.5,-198.73"/>
<polygon fill="#0000ff" stroke="#0000ff" points="203.89,-196.25 193.32,-197.05 202.08,-203.01 203.89,-196.25"/>
</g>
<!-- intrometry_pjmsg_mcap -->
<g id="node4" class="node">
<title>intrometry_pjmsg_mcap</title>
<g id="a_node4"><a xlink:href="./intrometry_pjmsg_mcap/index.html" xlink:title="intrometry_pjmsg_mcap">
<ellipse fill="none" stroke="black" cx="399" cy="-181" rx="122.68" ry="18"/>
<text text-anchor="middle" x="399" y="-177.3" font-family="Times,serif" font-size="14.00">intrometry_pjmsg_mcap</text>
</a>
</g>
</g>
<!-- intrometry_tests&#45;&gt;intrometry_pjmsg_mcap -->
<g id="edge3" class="edge">
<title>intrometry_tests&#45;&gt;intrometry_pjmsg_mcap</title>
<path fill="none" stroke="#0000ff" d="M398,-234.7C398,-226.98 398,-217.71 398,-209.11"/>
<path fill="none" stroke="#ff0000" d="M400,-234.7C400,-226.98 400,-217.71 400,-209.11"/>
<polygon fill="#0000ff" stroke="#0000ff" points="402.5,-209.1 399,-199.1 395.5,-209.1 402.5,-209.1"/>
</g>
<!-- intrometry_tests&#45;&gt;thread_supervisor -->
<g id="edge2" class="edge">
<title>intrometry_tests&#45;&gt;thread_supervisor</title>
<path fill="none" stroke="#0000ff" d="M474.16,-242.49C643.29,-223.78 1066.44,-179.38 1421.95,-162 1462.74,-160.01 2116.27,-163.19 2155.77,-154.03 2178.66,-148.75 2202.69,-137.6 2221.46,-127.41"/>
<path fill="none" stroke="#ff0000" d="M474.38,-244.47C643.5,-225.76 1066.65,-181.37 1422.05,-164 1462.73,-162.01 2116.26,-165.19 2156.23,-155.97 2179.5,-150.57 2203.53,-139.41 2222.41,-129.17"/>
<polygon fill="#0000ff" stroke="#0000ff" points="2223.7,-131.31 2230.73,-123.38 2220.29,-125.2 2223.7,-131.31"/>
</g>
<!-- intrometry_pjmsg_mcap&#45;&gt;intrometry_frontend -->
<g id="edge7" class="edge">
<title>intrometry_pjmsg_mcap&#45;&gt;intrometry_frontend</title>
<path fill="none" stroke="#0000ff" d="M398,-162.7C398,-154.25 398,-143.87 398,-134.37"/>
<path fill="none" stroke="#ff0000" d="M400,-162.7C400,-154.25 400,-143.87 400,-134.37"/>
<polygon fill="#0000ff" stroke="#0000ff" points="402.5,-134.18 399,-124.18 395.5,-134.18 402.5,-134.18"/>
</g>
<!-- intrometry_pjmsg_mcap&#45;&gt;thread_supervisor -->
<g id="edge8" class="edge">
<title>intrometry_pjmsg_mcap&#45;&gt;thread_supervisor</title>
<path fill="none" stroke="#0000ff" d="M519.77,-177.66C706.25,-174.12 1075.53,-167.33 1389,-163 1431.61,-162.41 2114.48,-164.59 2156,-155 2179.08,-149.67 2203.11,-138.51 2221.94,-128.3"/>
<polygon fill="#0000ff" stroke="#0000ff" points="2223.71,-131.32 2230.73,-123.39 2220.29,-125.2 2223.71,-131.32"/>
</g>
<!-- intrometry_pjmsg_mcap&#45;&gt;ariles2_namevalue2_ws -->
<g id="edge9" class="edge">
<title>intrometry_pjmsg_mcap&#45;&gt;ariles2_namevalue2_ws</title>
<path fill="none" stroke="#0000ff" d="M520.16,-176.88C835.62,-171.34 1658.93,-156.65 1672.81,-154.02 1702.29,-148.46 1734.08,-136.84 1758.75,-126.45"/>
<path fill="none" stroke="#ff0000" d="M520.2,-178.88C835.66,-173.34 1658.96,-158.65 1673.19,-155.98 1702.98,-150.34 1734.76,-138.72 1759.53,-128.29"/>
<polygon fill="#0000ff" stroke="#0000ff" points="1760.79,-130.47 1768.59,-123.31 1758.02,-124.04 1760.79,-130.47"/>
</g>
<!-- pjmsg_mcap_wrapper -->
<g id="node6" class="node">
<title>pjmsg_mcap_wrapper</title>
<g id="a_node6"><a xlink:href="./pjmsg_mcap_wrapper/index.html" xlink:title="pjmsg_mcap_wrapper">
<ellipse fill="none" stroke="black" cx="1543" cy="-181" rx="111.58" ry="18"/>
<text text-anchor="middle" x="1543" y="-177.3" font-family="Times,serif" font-size="14.00">pjmsg_mcap_wrapper</text>
</a>
</g>
</g>
<!-- graphite_to_mcap -->
<g id="node7" class="node">
<title>graphite_to_mcap</title>
<g id="a_node7"><a xlink:href="./graphite_to_mcap/index.html" xlink:title="graphite_to_mcap">
<ellipse fill="none" stroke="black" cx="1543" cy="-253" rx="92.88" ry="18"/>
<text text-anchor="middle" x="1543" y="-249.3" font-family="Times,serif" font-size="14.00">graphite_to_mcap</text>
</a>
</g>
</g>
<!-- graphite_to_mcap&#45;&gt;pjmsg_mcap_wrapper -->
<g id="edge11" class="edge">
<title>graphite_to_mcap&#45;&gt;pjmsg_mcap_wrapper</title>
<path fill="none" stroke="#0000ff" d="M1542,-234.7C1542,-226.98 1542,-217.71 1542,-209.11"/>
<path fill="none" stroke="#ff0000" d="M1544,-234.7C1544,-226.98 1544,-217.71 1544,-209.11"/>
<polygon fill="#0000ff" stroke="#0000ff" points="1546.5,-209.1 1543,-199.1 1539.5,-209.1 1546.5,-209.1"/>
</g>
<!-- ariles2_octave_ws -->
<g id="node9" class="node">
<title>ariles2_octave_ws</title>
<g id="a_node9"><a xlink:href="./ariles2_octave_ws/index.html" xlink:title="ariles2_octave_ws">
<ellipse fill="none" stroke="black" cx="1100" cy="-106" rx="94.48" ry="18"/>
<text text-anchor="middle" x="1100" y="-102.3" font-family="Times,serif" font-size="14.00">ariles2_octave_ws</text>
</a>
</g>
</g>
<!-- ariles2_octave_ws&#45;&gt;ariles2_core_ws -->
<g id="edge16" class="edge">
<title>ariles2_octave_ws&#45;&gt;ariles2_core_ws</title>
<path fill="none" stroke="#0000ff" d="M1124.54,-87.75C1139.03,-78.27 1157.43,-66.23 1173.13,-55.97"/>
<path fill="none" stroke="#ff0000" d="M1125.63,-89.42C1140.12,-79.95 1158.53,-67.91 1174.22,-57.64"/>
<polygon fill="#0000ff" stroke="#0000ff" points="1175.62,-59.71 1182.07,-51.31 1171.79,-53.85 1175.62,-59.71"/>
</g>
<!-- ariles2_rapidjson_ws -->
<g id="node10" class="node">
<title>ariles2_rapidjson_ws</title>
<g id="a_node10"><a xlink:href="./ariles2_rapidjson_ws/index.html" xlink:title="ariles2_rapidjson_ws">
<ellipse fill="none" stroke="black" cx="881" cy="-106" rx="107.48" ry="18"/>
<text text-anchor="middle" x="881" y="-102.3" font-family="Times,serif" font-size="14.00">ariles2_rapidjson_ws</text>
</a>
</g>
</g>
<!-- ariles2_rapidjson_ws&#45;&gt;ariles2_core_ws -->
<g id="edge14" class="edge">
<title>ariles2_rapidjson_ws&#45;&gt;ariles2_core_ws</title>
<path fill="none" stroke="#0000ff" d="M944,-90.39C961.13,-86.69 979.67,-82.7 996.79,-79.02 1044.61,-68.75 1098.57,-57.18 1139.81,-48.35"/>
<path fill="none" stroke="#ff0000" d="M944.42,-92.34C961.55,-88.65 980.09,-84.66 997.21,-80.98 1045.03,-70.7 1098.99,-59.14 1140.23,-50.31"/>
<polygon fill="#0000ff" stroke="#0000ff" points="1140.91,-52.72 1149.95,-47.21 1139.44,-45.88 1140.91,-52.72"/>
</g>
<!-- ariles2_graphviz_ws -->
<g id="node11" class="node">
<title>ariles2_graphviz_ws</title>
<g id="a_node11"><a xlink:href="./ariles2_graphviz_ws/index.html" xlink:title="ariles2_graphviz_ws">
<ellipse fill="none" stroke="black" cx="651" cy="-106" rx="104.78" ry="18"/>
<text text-anchor="middle" x="651" y="-102.3" font-family="Times,serif" font-size="14.00">ariles2_graphviz_ws</text>
</a>
</g>
</g>
<!-- ariles2_graphviz_ws&#45;&gt;ariles2_core_ws -->
<g id="edge18" class="edge">
<title>ariles2_graphviz_ws&#45;&gt;ariles2_core_ws</title>
<path fill="none" stroke="#0000ff" d="M708.83,-89.95C726.71,-85.98 746.49,-81.95 764.84,-79.01 886.65,-59.52 1028.68,-46.83 1118.21,-40.04"/>
<path fill="none" stroke="#ff0000" d="M709.26,-91.9C727.11,-87.94 746.89,-83.91 765.16,-80.99 886.83,-61.52 1028.86,-48.82 1118.37,-42.03"/>
<polygon fill="#0000ff" stroke="#0000ff" points="1118.69,-44.51 1128.4,-40.27 1118.17,-37.53 1118.69,-44.51"/>
</g>
<!-- ariles2_pugixml_ws -->
<g id="node12" class="node">
<title>ariles2_pugixml_ws</title>
<g id="a_node12"><a xlink:href="./ariles2_pugixml_ws/index.html" xlink:title="ariles2_pugixml_ws">
<ellipse fill="none" stroke="black" cx="2043" cy="-106" rx="101.28" ry="18"/>
<text text-anchor="middle" x="2043" y="-102.3" font-family="Times,serif" font-size="14.00">ariles2_pugixml_ws</text>
</a>
</g>
</g>
<!-- ariles2_pugixml_ws&#45;&gt;ariles2_core_ws -->
<g id="edge15" class="edge">
<title>ariles2_pugixml_ws&#45;&gt;ariles2_core_ws</title>
<path fill="none" stroke="#0000ff" d="M1987.77,-91.76C1970.03,-87.67 1950.18,-83.6 1931.86,-80.99 1706.95,-48.89 1439.4,-39.69 1300.76,-37.05"/>
<path fill="none" stroke="#ff0000" d="M1988.22,-89.81C1970.43,-85.71 1950.58,-81.64 1932.14,-79.01 1707.01,-46.89 1439.47,-37.69 1300.8,-35.05"/>
<polygon fill="#0000ff" stroke="#0000ff" points="1300.68,-32.55 1290.62,-35.87 1300.55,-39.55 1300.68,-32.55"/>
</g>
<!-- ariles2_namevalue2_ws&#45;&gt;ariles2_core_ws -->
<g id="edge17" class="edge">
<title>ariles2_namevalue2_ws&#45;&gt;ariles2_core_ws</title>
<path fill="none" stroke="#0000ff" d="M1736.21,-91.93C1715.93,-87.99 1693.52,-83.97 1672.86,-80.99 1542.13,-62.15 1389.51,-49.09 1295.56,-42.07"/>
<path fill="none" stroke="#ff0000" d="M1736.59,-89.97C1716.29,-86.02 1693.88,-82 1673.14,-79.01 1542.3,-60.16 1389.69,-47.1 1295.71,-40.08"/>
<polygon fill="#0000ff" stroke="#0000ff" points="1295.83,-37.58 1285.6,-40.33 1295.31,-44.56 1295.83,-37.58"/>
</g>
<!-- ariles2_ros2param_ws -->
<g id="node14" class="node">
<title>ariles2_ros2param_ws</title>
<g id="a_node14"><a xlink:href="./ariles2_ros2param_ws/index.html" xlink:title="ariles2_ros2param_ws">
<ellipse fill="none" stroke="black" cx="1550" cy="-106" rx="114.28" ry="18"/>
<text text-anchor="middle" x="1550" y="-102.3" font-family="Times,serif" font-size="14.00">ariles2_ros2param_ws</text>
</a>
</g>
</g>
<!-- ariles2_ros2param_ws&#45;&gt;ariles2_core_ws -->
<g id="edge13" class="edge">
<title>ariles2_ros2param_ws&#45;&gt;ariles2_core_ws</title>
<path fill="none" stroke="#0000ff" d="M1482.85,-92.32C1422.92,-80.09 1335.45,-62.24 1275.11,-49.92"/>
<path fill="none" stroke="#ff0000" d="M1483.25,-90.36C1423.32,-78.13 1335.85,-60.28 1275.51,-47.96"/>
<polygon fill="#0000ff" stroke="#0000ff" points="1275.99,-45.51 1265.5,-46.94 1274.59,-52.37 1275.99,-45.51"/>
</g>
<!-- ariles2_yamlcpp_ws -->
<g id="node15" class="node">
<title>ariles2_yamlcpp_ws</title>
<g id="a_node15"><a xlink:href="./ariles2_yamlcpp_ws/index.html" xlink:title="ariles2_yamlcpp_ws">
<ellipse fill="none" stroke="black" cx="1315" cy="-106" rx="102.88" ry="18"/>
<text text-anchor="middle" x="1315" y="-102.3" font-family="Times,serif" font-size="14.00">ariles2_yamlcpp_ws</text>
</a>
</g>
</g>
<!-- ariles2_yamlcpp_ws&#45;&gt;ariles2_core_ws -->
<g id="edge12" class="edge">
<title>ariles2_yamlcpp_ws&#45;&gt;ariles2_core_ws</title>
<path fill="none" stroke="#0000ff" d="M1288.86,-89.25C1274.23,-79.77 1255.71,-67.76 1239.93,-57.54"/>
<path fill="none" stroke="#ff0000" d="M1289.95,-87.57C1275.32,-78.09 1256.8,-66.08 1241.02,-55.86"/>
<polygon fill="#0000ff" stroke="#0000ff" points="1242.33,-53.73 1232.04,-51.23 1238.53,-59.6 1242.33,-53.73"/>
</g>
</g>
</svg>
