<?xml version="1.0" encoding="UTF-8" standalone="no"?>
<!DOCTYPE svg PUBLIC "-//W3C//DTD SVG 1.1//EN"
 "http://www.w3.org/Graphics/SVG/1.1/DTD/svg11.dtd">
<!-- Generated by graphviz version 2.43.0 (0)
 -->
<!-- Title: graphname Pages: 1 -->
<svg width="2359pt" height="318pt"
 viewBox="0.00 0.00 2358.89 318.00" xmlns="http://www.w3.org/2000/svg" xmlns:xlink="http://www.w3.org/1999/xlink">
<g id="graph0" class="graph" transform="scale(1 1) rotate(0) translate(4 314)">
<title>graphname</title>
<polygon fill="white" stroke="transparent" points="-4,4 -4,-314 2354.89,-314 2354.89,4 -4,4"/>
<g id="clust1" class="cluster">
<title>cluster_0</title>
<polygon fill="none" stroke="black" points="8,-80 8,-302 530,-302 530,-80 8,-80"/>
<text text-anchor="middle" x="269" y="-286.8" font-family="Times,serif" font-size="14.00">intrometry</text>
</g>
<g id="clust2" class="cluster">
<title>cluster_2</title>
<polygon fill="none" stroke="black" points="538,-8 538,-155 2151,-155 2151,-8 538,-8"/>
<text text-anchor="middle" x="1344.5" y="-139.8" font-family="Times,serif" font-size="14.00">ariles</text>
</g>
<!-- intrometry_pjmsg_mcap -->
<g id="node1" class="node">
<title>intrometry_pjmsg_mcap</title>
<g id="a_node1"><a xlink:href="./intrometry_pjmsg_mcap/index.html" xlink:title="intrometry_pjmsg_mcap">
<ellipse fill="none" stroke="black" cx="139" cy="-181" rx="122.68" ry="18"/>
<text text-anchor="middle" x="139" y="-177.3" font-family="Times,serif" font-size="14.00">intrometry_pjmsg_mcap</text>
</a>
</g>
</g>
<!-- intrometry_frontend -->
<g id="node4" class="node">
<title>intrometry_frontend</title>
<g id="a_node4"><a xlink:href="./intrometry_frontend/index.html" xlink:title="intrometry_frontend">
<ellipse fill="none" stroke="black" cx="401" cy="-106" rx="105.08" ry="18"/>
<text text-anchor="middle" x="401" y="-102.3" font-family="Times,serif" font-size="14.00">intrometry_frontend</text>
</a>
</g>
</g>
<!-- intrometry_pjmsg_mcap&#45;&gt;intrometry_frontend -->
<g id="edge7" class="edge">
<title>intrometry_pjmsg_mcap&#45;&gt;intrometry_frontend</title>
<path fill="none" stroke="#0000ff" d="M193.34,-163.82C235.58,-152.05 294.12,-135.74 338.24,-123.45"/>
<path fill="none" stroke="#ff0000" d="M193.87,-165.75C236.12,-153.98 294.66,-137.67 338.77,-125.38"/>
<polygon fill="#0000ff" stroke="#0000ff" points="339.56,-127.75 348.25,-121.7 337.68,-121.01 339.56,-127.75"/>
</g>
<!-- thread_supervisor -->
<g id="node6" class="node">
<title>thread_supervisor</title>
<g id="a_node6"><a xlink:href="./thread_supervisor/index.html" xlink:title="thread_supervisor">
<ellipse fill="none" stroke="black" cx="2256" cy="-106" rx="94.78" ry="18"/>
<text text-anchor="middle" x="2256" y="-102.3" font-family="Times,serif" font-size="14.00">thread_supervisor</text>
</a>
</g>
</g>
<!-- intrometry_pjmsg_mcap&#45;&gt;thread_supervisor -->
<g id="edge8" class="edge">
<title>intrometry_pjmsg_mcap&#45;&gt;thread_supervisor</title>
<path fill="none" stroke="#0000ff" d="M222.29,-167.68C238.41,-165.75 255.21,-164.05 271,-163 323.22,-159.54 2103.97,-166.62 2155,-155 2178.1,-149.74 2202.13,-138.59 2220.95,-128.35"/>
<polygon fill="#0000ff" stroke="#0000ff" points="2222.72,-131.37 2229.74,-123.44 2219.31,-125.26 2222.72,-131.37"/>
</g>
<!-- ariles2_namevalue2_ws -->
<g id="node14" class="node">
<title>ariles2_namevalue2_ws</title>
<g id="a_node14"><a xlink:href="./ariles2_namevalue2_ws/index.html" xlink:title="ariles2_namevalue2_ws">
<ellipse fill="none" stroke="black" cx="1575" cy="-106" rx="120.48" ry="18"/>
<text text-anchor="middle" x="1575" y="-102.3" font-family="Times,serif" font-size="14.00">ariles2_namevalue2_ws</text>
</a>
</g>
</g>
<!-- intrometry_pjmsg_mcap&#45;&gt;ariles2_namevalue2_ws -->
<g id="edge9" class="edge">
<title>intrometry_pjmsg_mcap&#45;&gt;ariles2_namevalue2_ws</title>
<path fill="none" stroke="#0000ff" d="M222.17,-166.72C238.32,-164.78 255.11,-163.07 270.93,-162 336.14,-157.6 1381.8,-165.78 1445.82,-154.02 1475.22,-148.64 1506.88,-136.95 1531.39,-126.49"/>
<path fill="none" stroke="#ff0000" d="M222.41,-168.71C238.52,-166.77 255.31,-165.06 271.07,-164 336.12,-159.6 1381.79,-167.78 1446.18,-155.98 1475.91,-150.51 1507.57,-138.83 1532.17,-128.33"/>
<polygon fill="#0000ff" stroke="#0000ff" points="1533.4,-130.52 1541.16,-123.31 1530.6,-124.11 1533.4,-130.52"/>
</g>
<!-- intrometry_tests -->
<g id="node2" class="node">
<title>intrometry_tests</title>
<g id="a_node2"><a xlink:href="./intrometry_tests/index.html" xlink:title="intrometry_tests">
<ellipse fill="none" stroke="black" cx="401" cy="-253" rx="88.28" ry="18"/>
<text text-anchor="middle" x="401" y="-249.3" font-family="Times,serif" font-size="14.00">intrometry_tests</text>
</a>
</g>
</g>
<!-- intrometry_tests&#45;&gt;intrometry_pjmsg_mcap -->
<g id="edge3" class="edge">
<title>intrometry_tests&#45;&gt;intrometry_pjmsg_mcap</title>
<path fill="none" stroke="#0000ff" d="M349.29,-239.22C308,-228.19 249.75,-212.62 204.98,-200.66"/>
<path fill="none" stroke="#ff0000" d="M349.81,-237.29C308.52,-226.26 250.27,-210.69 205.5,-198.73"/>
<polygon fill="#0000ff" stroke="#0000ff" points="205.89,-196.25 195.32,-197.05 204.08,-203.01 205.89,-196.25"/>
</g>
<!-- intrometry_pjmsg_topic -->
<g id="node3" class="node">
<title>intrometry_pjmsg_topic</title>
<g id="a_node3"><a xlink:href="./intrometry_pjmsg_topic/index.html" xlink:title="intrometry_pjmsg_topic">
<ellipse fill="none" stroke="black" cx="401" cy="-181" rx="120.78" ry="18"/>
<text text-anchor="middle" x="401" y="-177.3" font-family="Times,serif" font-size="14.00">intrometry_pjmsg_topic</text>
</a>
</g>
</g>
<!-- intrometry_tests&#45;&gt;intrometry_pjmsg_topic -->
<g id="edge1" class="edge">
<title>intrometry_tests&#45;&gt;intrometry_pjmsg_topic</title>
<path fill="none" stroke="#0000ff" d="M400,-234.7C400,-226.98 400,-217.71 400,-209.11"/>
<path fill="none" stroke="#ff0000" d="M402,-234.7C402,-226.98 402,-217.71 402,-209.11"/>
<polygon fill="#0000ff" stroke="#0000ff" points="404.5,-209.1 401,-199.1 397.5,-209.1 404.5,-209.1"/>
</g>
<!-- intrometry_tests&#45;&gt;thread_supervisor -->
<g id="edge2" class="edge">
<title>intrometry_tests&#45;&gt;thread_supervisor</title>
<path fill="none" stroke="#0000ff" d="M476.01,-242.49C644.81,-223.77 1067.13,-179.38 1421.95,-162 1462.68,-160.01 2115.33,-163.18 2154.77,-154.03 2177.66,-148.75 2201.69,-137.6 2220.46,-127.41"/>
<path fill="none" stroke="#ff0000" d="M476.23,-244.47C645.02,-225.76 1067.34,-181.37 1422.05,-164 1462.67,-162.01 2115.32,-165.18 2155.23,-155.97 2178.5,-150.57 2202.53,-139.41 2221.41,-129.17"/>
<polygon fill="#0000ff" stroke="#0000ff" points="2222.7,-131.31 2229.73,-123.38 2219.29,-125.2 2222.7,-131.31"/>
</g>
<!-- intrometry_pjmsg_topic&#45;&gt;intrometry_frontend -->
<g id="edge6" class="edge">
<title>intrometry_pjmsg_topic&#45;&gt;intrometry_frontend</title>
<path fill="none" stroke="#0000ff" d="M400,-162.7C400,-154.25 400,-143.87 400,-134.37"/>
<path fill="none" stroke="#ff0000" d="M402,-162.7C402,-154.25 402,-143.87 402,-134.37"/>
<polygon fill="#0000ff" stroke="#0000ff" points="404.5,-134.18 401,-124.18 397.5,-134.18 404.5,-134.18"/>
</g>
<!-- intrometry_pjmsg_topic&#45;&gt;thread_supervisor -->
<g id="edge4" class="edge">
<title>intrometry_pjmsg_topic&#45;&gt;thread_supervisor</title>
<path fill="none" stroke="#0000ff" d="M520,-177.69C705.61,-174.15 1075.3,-167.34 1389,-163 1431.55,-162.41 2113.53,-164.58 2155,-155 2178.08,-149.67 2202.11,-138.51 2220.94,-128.3"/>
<polygon fill="#0000ff" stroke="#0000ff" points="2222.71,-131.32 2229.73,-123.39 2219.29,-125.2 2222.71,-131.32"/>
</g>
<!-- intrometry_pjmsg_topic&#45;&gt;ariles2_namevalue2_ws -->
<g id="edge5" class="edge">
<title>intrometry_pjmsg_topic&#45;&gt;ariles2_namevalue2_ws</title>
<path fill="none" stroke="#0000ff" d="M521.6,-178.36C777.25,-176.68 1357.5,-171.02 1445.81,-154.02 1475.07,-148.4 1506.61,-136.78 1531.1,-126.4"/>
<path fill="none" stroke="#ff0000" d="M521.62,-180.36C777.27,-178.68 1357.52,-173.02 1446.19,-155.98 1475.76,-150.28 1507.3,-138.65 1531.88,-128.24"/>
<polygon fill="#0000ff" stroke="#0000ff" points="1533.07,-130.45 1540.86,-123.26 1530.3,-124.02 1533.07,-130.45"/>
</g>
<!-- ariles2_core_ws -->
<g id="node11" class="node">
<title>ariles2_core_ws</title>
<g id="a_node11"><a xlink:href="./ariles2_core_ws/index.html" xlink:title="ariles2_core_ws">
<ellipse fill="none" stroke="black" cx="1210" cy="-34" rx="83.69" ry="18"/>
<text text-anchor="middle" x="1210" y="-30.3" font-family="Times,serif" font-size="14.00">ariles2_core_ws</text>
</a>
</g>
</g>
<!-- intrometry_frontend&#45;&gt;ariles2_core_ws -->
<g id="edge10" class="edge">
<title>intrometry_frontend&#45;&gt;ariles2_core_ws</title>
<path fill="none" stroke="#0000ff" d="M463.82,-90.58C485.89,-86.3 510.87,-81.93 533.87,-79.01 741.29,-52.71 986.48,-41.24 1117.1,-36.68"/>
<path fill="none" stroke="#ff0000" d="M464.2,-92.54C486.23,-88.27 511.21,-83.9 534.13,-80.99 741.38,-54.71 986.57,-43.23 1117.17,-38.67"/>
<polygon fill="#0000ff" stroke="#0000ff" points="1117.61,-41.16 1127.49,-37.32 1117.37,-34.17 1117.61,-41.16"/>
</g>
<!-- graphite_to_mcap -->
<g id="node5" class="node">
<title>graphite_to_mcap</title>
<g id="a_node5"><a xlink:href="./graphite_to_mcap/index.html" xlink:title="graphite_to_mcap">
<ellipse fill="none" stroke="black" cx="1543" cy="-253" rx="92.88" ry="18"/>
<text text-anchor="middle" x="1543" y="-249.3" font-family="Times,serif" font-size="14.00">graphite_to_mcap</text>
</a>
</g>
</g>
<!-- pjmsg_mcap_wrapper -->
<g id="node7" class="node">
<title>pjmsg_mcap_wrapper</title>
<g id="a_node7"><a xlink:href="./pjmsg_mcap_wrapper/index.html" xlink:title="pjmsg_mcap_wrapper">
<ellipse fill="none" stroke="black" cx="1543" cy="-181" rx="111.58" ry="18"/>
<text text-anchor="middle" x="1543" y="-177.3" font-family="Times,serif" font-size="14.00">pjmsg_mcap_wrapper</text>
</a>
</g>
</g>
<!-- graphite_to_mcap&#45;&gt;pjmsg_mcap_wrapper -->
<g id="edge11" class="edge">
<title>graphite_to_mcap&#45;&gt;pjmsg_mcap_wrapper</title>
<path fill="none" stroke="#0000ff" d="M1542,-234.7C1542,-226.98 1542,-217.71 1542,-209.11"/>
<path fill="none" stroke="#ff0000" d="M1544,-234.7C1544,-226.98 1544,-217.71 1544,-209.11"/>
<polygon fill="#0000ff" stroke="#0000ff" points="1546.5,-209.1 1543,-199.1 1539.5,-209.1 1546.5,-209.1"/>
</g>
<!-- ariles2_ros2param_ws -->
<g id="node8" class="node">
<title>ariles2_ros2param_ws</title>
<g id="a_node8"><a xlink:href="./ariles2_ros2param_ws/index.html" xlink:title="ariles2_ros2param_ws">
<ellipse fill="none" stroke="black" cx="1090" cy="-106" rx="114.28" ry="18"/>
<text text-anchor="middle" x="1090" y="-102.3" font-family="Times,serif" font-size="14.00">ariles2_ros2param_ws</text>
</a>
</g>
</g>
<!-- ariles2_ros2param_ws&#45;&gt;ariles2_core_ws -->
<g id="edge13" class="edge">
<title>ariles2_ros2param_ws&#45;&gt;ariles2_core_ws</title>
<path fill="none" stroke="#0000ff" d="M1117.93,-87.55C1134.34,-77.98 1155.15,-65.84 1172.78,-55.55"/>
<path fill="none" stroke="#ff0000" d="M1118.94,-89.27C1135.35,-79.7 1156.16,-67.56 1173.79,-57.28"/>
<polygon fill="#0000ff" stroke="#0000ff" points="1175.31,-59.29 1182.18,-51.23 1171.78,-53.24 1175.31,-59.29"/>
</g>
<!-- ariles2_yamlcpp_ws -->
<g id="node9" class="node">
<title>ariles2_yamlcpp_ws</title>
<g id="a_node9"><a xlink:href="./ariles2_yamlcpp_ws/index.html" xlink:title="ariles2_yamlcpp_ws">
<ellipse fill="none" stroke="black" cx="855" cy="-106" rx="102.88" ry="18"/>
<text text-anchor="middle" x="855" y="-102.3" font-family="Times,serif" font-size="14.00">ariles2_yamlcpp_ws</text>
</a>
</g>
</g>
<!-- ariles2_yamlcpp_ws&#45;&gt;ariles2_core_ws -->
<g id="edge12" class="edge">
<title>ariles2_yamlcpp_ws&#45;&gt;ariles2_core_ws</title>
<path fill="none" stroke="#0000ff" d="M914.27,-90.32C931.22,-86.53 949.71,-82.51 966.8,-79.02 1023.82,-67.38 1088.62,-55.45 1136.96,-46.79"/>
<path fill="none" stroke="#ff0000" d="M914.71,-92.27C931.64,-88.49 950.13,-84.46 967.2,-80.98 1024.19,-69.35 1088.98,-57.41 1137.32,-48.76"/>
<polygon fill="#0000ff" stroke="#0000ff" points="1137.97,-51.18 1147.2,-45.98 1136.74,-44.29 1137.97,-51.18"/>
</g>
<!-- ariles2_octave_ws -->
<g id="node10" class="node">
<title>ariles2_octave_ws</title>
<g id="a_node10"><a xlink:href="./ariles2_octave_ws/index.html" xlink:title="ariles2_octave_ws">
<ellipse fill="none" stroke="black" cx="640" cy="-106" rx="94.48" ry="18"/>
<text text-anchor="middle" x="640" y="-102.3" font-family="Times,serif" font-size="14.00">ariles2_octave_ws</text>
</a>
</g>
</g>
<!-- ariles2_octave_ws&#45;&gt;ariles2_core_ws -->
<g id="edge16" class="edge">
<title>ariles2_octave_ws&#45;&gt;ariles2_core_ws</title>
<path fill="none" stroke="#0000ff" d="M691.6,-89.93C707.9,-85.9 726,-81.85 742.83,-79.01 872.92,-57.08 1025.21,-44.89 1119.65,-38.89"/>
<path fill="none" stroke="#ff0000" d="M692.08,-91.87C708.33,-87.86 726.43,-83.81 743.17,-80.99 873.08,-59.07 1025.37,-46.88 1119.78,-40.88"/>
<polygon fill="#0000ff" stroke="#0000ff" points="1120.04,-43.37 1129.81,-39.25 1119.61,-36.39 1120.04,-43.37"/>
</g>
<!-- ariles2_pugixml_ws -->
<g id="node12" class="node">
<title>ariles2_pugixml_ws</title>
<g id="a_node12"><a xlink:href="./ariles2_pugixml_ws/index.html" xlink:title="ariles2_pugixml_ws">
<ellipse fill="none" stroke="black" cx="2042" cy="-106" rx="101.28" ry="18"/>
<text text-anchor="middle" x="2042" y="-102.3" font-family="Times,serif" font-size="14.00">ariles2_pugixml_ws</text>
</a>
</g>
</g>
<!-- ariles2_pugixml_ws&#45;&gt;ariles2_core_ws -->
<g id="edge15" class="edge">
<title>ariles2_pugixml_ws&#45;&gt;ariles2_core_ws</title>
<path fill="none" stroke="#0000ff" d="M1987.27,-91.76C1969.69,-87.67 1950.02,-83.6 1931.86,-80.99 1708.06,-48.79 1441.81,-39.63 1303.67,-37.03"/>
<path fill="none" stroke="#ff0000" d="M1987.72,-89.81C1970.1,-85.71 1950.42,-81.64 1932.14,-79.01 1708.13,-46.79 1441.88,-37.63 1303.7,-35.03"/>
<polygon fill="#0000ff" stroke="#0000ff" points="1303.62,-32.53 1293.55,-35.84 1303.49,-39.53 1303.62,-32.53"/>
</g>
<!-- ariles2_graphviz_ws -->
<g id="node13" class="node">
<title>ariles2_graphviz_ws</title>
<g id="a_node13"><a xlink:href="./ariles2_graphviz_ws/index.html" xlink:title="ariles2_graphviz_ws">
<ellipse fill="none" stroke="black" cx="1818" cy="-106" rx="104.78" ry="18"/>
<text text-anchor="middle" x="1818" y="-102.3" font-family="Times,serif" font-size="14.00">ariles2_graphviz_ws</text>
</a>
</g>
</g>
<!-- ariles2_graphviz_ws&#45;&gt;ariles2_core_ws -->
<g id="edge18" class="edge">
<title>ariles2_graphviz_ws&#45;&gt;ariles2_core_ws</title>
<path fill="none" stroke="#0000ff" d="M1760.34,-91.91C1742.34,-87.9 1722.32,-83.84 1703.85,-80.99 1563.84,-59.34 1399.67,-46.93 1300.32,-40.83"/>
<path fill="none" stroke="#ff0000" d="M1760.78,-89.96C1742.74,-85.94 1722.72,-81.88 1704.15,-79.01 1563.99,-57.35 1399.83,-44.94 1300.44,-38.83"/>
<polygon fill="#0000ff" stroke="#0000ff" points="1300.57,-36.34 1290.38,-39.23 1300.15,-43.32 1300.57,-36.34"/>
</g>
<!-- ariles2_namevalue2_ws&#45;&gt;ariles2_core_ws -->
<g id="edge17" class="edge">
<title>ariles2_namevalue2_ws&#45;&gt;ariles2_core_ws</title>
<path fill="none" stroke="#0000ff" d="M1504.52,-92.32C1485.47,-88.63 1464.85,-84.64 1445.81,-80.98 1390.29,-70.31 1327.4,-58.32 1280.51,-49.4"/>
<path fill="none" stroke="#ff0000" d="M1504.9,-90.36C1485.85,-86.66 1465.23,-82.68 1446.19,-79.02 1390.66,-68.34 1327.77,-56.36 1280.88,-47.44"/>
<polygon fill="#0000ff" stroke="#0000ff" points="1281.12,-44.94 1270.64,-46.51 1279.81,-51.82 1281.12,-44.94"/>
</g>
<!-- ariles2_rapidjson_ws -->
<g id="node15" class="node">
<title>ariles2_rapidjson_ws</title>
<g id="a_node15"><a xlink:href="./ariles2_rapidjson_ws/index.html" xlink:title="ariles2_rapidjson_ws">
<ellipse fill="none" stroke="black" cx="1330" cy="-106" rx="107.48" ry="18"/>
<text text-anchor="middle" x="1330" y="-102.3" font-family="Times,serif" font-size="14.00">ariles2_rapidjson_ws</text>
</a>
</g>
</g>
<!-- ariles2_rapidjson_ws&#45;&gt;ariles2_core_ws -->
<g id="edge14" class="edge">
<title>ariles2_rapidjson_ws&#45;&gt;ariles2_core_ws</title>
<path fill="none" stroke="#0000ff" d="M1301.36,-89.45C1284.84,-79.82 1263.79,-67.53 1246,-57.16"/>
<path fill="none" stroke="#ff0000" d="M1302.37,-87.72C1285.85,-78.09 1264.8,-65.81 1247.01,-55.43"/>
<polygon fill="#0000ff" stroke="#0000ff" points="1247.95,-53.08 1237.54,-51.07 1244.42,-59.13 1247.95,-53.08"/>
</g>
</g>
</svg>
