<?xml version="1.0" encoding="UTF-8" standalone="no"?>
<!DOCTYPE svg PUBLIC "-//W3C//DTD SVG 1.1//EN"
 "http://www.w3.org/Graphics/SVG/1.1/DTD/svg11.dtd">
<!-- Generated by graphviz version 2.43.0 (0)
 -->
<!-- Title: graphname Pages: 1 -->
<svg width="1244pt" height="318pt"
 viewBox="0.00 0.00 1243.89 318.00" xmlns="http://www.w3.org/2000/svg" xmlns:xlink="http://www.w3.org/1999/xlink">
<g id="graph0" class="graph" transform="scale(1 1) rotate(0) translate(4 314)">
<title>graphname</title>
<polygon fill="white" stroke="transparent" points="-4,4 -4,-314 1239.89,-314 1239.89,4 -4,4"/>
<g id="clust1" class="cluster">
<title>cluster_0</title>
<polygon fill="none" stroke="black" points="8,-80 8,-302 530,-302 530,-80 8,-80"/>
<text text-anchor="middle" x="269" y="-286.8" font-family="Times,serif" font-size="14.00">intrometry</text>
</g>
<g id="clust2" class="cluster">
<title>cluster_1</title>
<polygon fill="none" stroke="black" points="538,-8 538,-155 794,-155 794,-8 538,-8"/>
<text text-anchor="middle" x="666" y="-139.8" font-family="Times,serif" font-size="14.00">ariles</text>
</g>
<!-- intrometry_pjmsg_topic -->
<g id="node1" class="node">
<title>intrometry_pjmsg_topic</title>
<g id="a_node1"><a xlink:href="../intrometry_pjmsg_topic/index.html" xlink:title="intrometry_pjmsg_topic">
<ellipse fill="none" stroke="black" cx="137" cy="-181" rx="120.78" ry="18"/>
<text text-anchor="middle" x="137" y="-177.3" font-family="Times,serif" font-size="14.00">intrometry_pjmsg_topic</text>
</a>
</g>
</g>
<!-- intrometry_frontend -->
<g id="node2" class="node">
<title>intrometry_frontend</title>
<g id="a_node2"><a xlink:href="../intrometry_frontend/index.html" xlink:title="intrometry_frontend">
<ellipse fill="none" stroke="black" cx="399" cy="-106" rx="105.08" ry="18"/>
<text text-anchor="middle" x="399" y="-102.3" font-family="Times,serif" font-size="14.00">intrometry_frontend</text>
</a>
</g>
</g>
<!-- intrometry_pjmsg_topic&#45;&gt;intrometry_frontend -->
<g id="edge6" class="edge">
<title>intrometry_pjmsg_topic&#45;&gt;intrometry_frontend</title>
<path fill="none" stroke="#0000ff" d="M191.02,-163.91C233.24,-152.15 291.88,-135.81 336.09,-123.49"/>
<path fill="none" stroke="#ff0000" d="M191.55,-165.84C233.78,-154.07 292.41,-137.74 336.62,-125.42"/>
<polygon fill="#0000ff" stroke="#0000ff" points="337.43,-127.79 346.13,-121.73 335.55,-121.04 337.43,-127.79"/>
</g>
<!-- ariles2_namevalue2_ws -->
<g id="node6" class="node">
<title>ariles2_namevalue2_ws</title>
<g id="a_node6"><a xlink:href="../ariles2_namevalue2_ws/index.html" xlink:title="ariles2_namevalue2_ws">
<ellipse fill="none" stroke="black" cx="666" cy="-106" rx="120.48" ry="18"/>
<text text-anchor="middle" x="666" y="-102.3" font-family="Times,serif" font-size="14.00">ariles2_namevalue2_ws</text>
</a>
</g>
</g>
<!-- intrometry_pjmsg_topic&#45;&gt;ariles2_namevalue2_ws -->
<g id="edge4" class="edge">
<title>intrometry_pjmsg_topic&#45;&gt;ariles2_namevalue2_ws</title>
<path fill="none" stroke="#0000ff" d="M219.97,-166.88C235.54,-164.97 251.69,-163.22 266.92,-162 326.22,-157.26 475.75,-165.17 533.81,-154.02 563.71,-148.3 596.01,-136.66 621.1,-126.3"/>
<path fill="none" stroke="#ff0000" d="M220.21,-168.87C235.76,-166.96 251.91,-165.21 267.08,-164 326.12,-159.26 475.65,-167.17 534.19,-155.98 564.39,-150.18 596.69,-138.54 621.86,-128.14"/>
<polygon fill="#0000ff" stroke="#0000ff" points="622.88,-130.43 630.74,-123.32 620.17,-123.98 622.88,-130.43"/>
</g>
<!-- thread_supervisor -->
<g id="node7" class="node">
<title>thread_supervisor</title>
<g id="a_node7"><a xlink:href="../thread_supervisor/index.html" xlink:title="thread_supervisor">
<ellipse fill="none" stroke="black" cx="1141" cy="-106" rx="94.78" ry="18"/>
<text text-anchor="middle" x="1141" y="-102.3" font-family="Times,serif" font-size="14.00">thread_supervisor</text>
</a>
</g>
</g>
<!-- intrometry_pjmsg_topic&#45;&gt;thread_supervisor -->
<g id="edge5" class="edge">
<title>intrometry_pjmsg_topic&#45;&gt;thread_supervisor</title>
<path fill="none" stroke="#0000ff" d="M219.03,-167.76C234.91,-165.82 251.45,-164.09 267,-163 309.67,-160 995.26,-164.39 1037,-155 1060.78,-149.65 1085.64,-138.41 1105.08,-128.16"/>
<polygon fill="#0000ff" stroke="#0000ff" points="1106.76,-131.23 1113.89,-123.39 1103.43,-125.08 1106.76,-131.23"/>
</g>
<!-- ariles2_core_ws -->
<g id="node5" class="node">
<title>ariles2_core_ws</title>
<g id="a_node5"><a xlink:href="../ariles2_core_ws/index.html" xlink:title="ariles2_core_ws">
<ellipse fill="none" stroke="black" cx="648" cy="-34" rx="83.69" ry="18"/>
<text text-anchor="middle" x="648" y="-30.3" font-family="Times,serif" font-size="14.00">ariles2_core_ws</text>
</a>
</g>
</g>
<!-- intrometry_frontend&#45;&gt;ariles2_core_ws -->
<g id="edge11" class="edge">
<title>intrometry_frontend&#45;&gt;ariles2_core_ws</title>
<path fill="none" stroke="#0000ff" d="M450.93,-89.36C491.33,-78.01 547.27,-62.28 589.19,-50.5"/>
<path fill="none" stroke="#ff0000" d="M451.47,-91.29C491.87,-79.93 547.81,-64.2 589.73,-52.42"/>
<polygon fill="#0000ff" stroke="#0000ff" points="590.57,-54.78 599.25,-48.7 588.68,-48.04 590.57,-54.78"/>
</g>
<!-- intrometry_tests -->
<g id="node3" class="node">
<title>intrometry_tests</title>
<g id="a_node3"><a xlink:href="../intrometry_tests/index.html" xlink:title="intrometry_tests">
<ellipse fill="none" stroke="black" cx="399" cy="-253" rx="88.28" ry="18"/>
<text text-anchor="middle" x="399" y="-249.3" font-family="Times,serif" font-size="14.00">intrometry_tests</text>
</a>
</g>
</g>
<!-- intrometry_tests&#45;&gt;intrometry_pjmsg_topic -->
<g id="edge1" class="edge">
<title>intrometry_tests&#45;&gt;intrometry_pjmsg_topic</title>
<path fill="none" stroke="#0000ff" d="M347.29,-239.22C306,-228.19 247.75,-212.62 202.98,-200.66"/>
<path fill="none" stroke="#ff0000" d="M347.81,-237.29C306.52,-226.26 248.27,-210.69 203.5,-198.73"/>
<polygon fill="#0000ff" stroke="#0000ff" points="203.89,-196.25 193.32,-197.05 202.08,-203.01 203.89,-196.25"/>
</g>
<!-- intrometry_pjmsg_mcap -->
<g id="node4" class="node">
<title>intrometry_pjmsg_mcap</title>
<g id="a_node4"><a xlink:href="../intrometry_pjmsg_mcap/index.html" xlink:title="intrometry_pjmsg_mcap">
<ellipse fill="none" stroke="black" cx="399" cy="-181" rx="122.68" ry="18"/>
<text text-anchor="middle" x="399" y="-177.3" font-family="Times,serif" font-size="14.00">intrometry_pjmsg_mcap</text>
</a>
</g>
</g>
<!-- intrometry_tests&#45;&gt;intrometry_pjmsg_mcap -->
<g id="edge3" class="edge">
<title>intrometry_tests&#45;&gt;intrometry_pjmsg_mcap</title>
<path fill="none" stroke="#0000ff" d="M398,-234.7C398,-226.98 398,-217.71 398,-209.11"/>
<path fill="none" stroke="#ff0000" d="M400,-234.7C400,-226.98 400,-217.71 400,-209.11"/>
<polygon fill="#0000ff" stroke="#0000ff" points="402.5,-209.1 399,-199.1 395.5,-209.1 402.5,-209.1"/>
</g>
<!-- intrometry_tests&#45;&gt;thread_supervisor -->
<g id="edge2" class="edge">
<title>intrometry_tests&#45;&gt;thread_supervisor</title>
<path fill="none" stroke="#0000ff" d="M482.13,-245.84C605.48,-236.52 843.21,-212.15 1036.71,-154.04 1059.18,-147.31 1083.16,-136.51 1102.35,-126.89"/>
<path fill="none" stroke="#ff0000" d="M482.28,-247.84C605.68,-238.51 843.42,-214.14 1037.29,-155.96 1060,-149.13 1083.98,-138.33 1103.25,-128.67"/>
<polygon fill="#0000ff" stroke="#0000ff" points="1104.52,-130.83 1111.83,-123.16 1101.34,-124.6 1104.52,-130.83"/>
</g>
<!-- intrometry_pjmsg_mcap&#45;&gt;intrometry_frontend -->
<g id="edge10" class="edge">
<title>intrometry_pjmsg_mcap&#45;&gt;intrometry_frontend</title>
<path fill="none" stroke="#0000ff" d="M398,-162.7C398,-154.25 398,-143.87 398,-134.37"/>
<path fill="none" stroke="#ff0000" d="M400,-162.7C400,-154.25 400,-143.87 400,-134.37"/>
<polygon fill="#0000ff" stroke="#0000ff" points="402.5,-134.18 399,-124.18 395.5,-134.18 402.5,-134.18"/>
</g>
<!-- intrometry_pjmsg_mcap&#45;&gt;ariles2_namevalue2_ws -->
<g id="edge8" class="edge">
<title>intrometry_pjmsg_mcap&#45;&gt;ariles2_namevalue2_ws</title>
<path fill="none" stroke="#0000ff" d="M479.26,-166.38C497.31,-162.92 516.31,-158.78 533.74,-154.04 561.81,-146.39 592.47,-135.41 617.13,-125.89"/>
<path fill="none" stroke="#ff0000" d="M479.63,-168.35C497.74,-164.88 516.73,-160.74 534.26,-155.96 562.48,-148.28 593.14,-137.29 617.85,-127.76"/>
<polygon fill="#0000ff" stroke="#0000ff" points="618.94,-130.02 626.98,-123.12 616.4,-123.5 618.94,-130.02"/>
</g>
<!-- intrometry_pjmsg_mcap&#45;&gt;thread_supervisor -->
<g id="edge9" class="edge">
<title>intrometry_pjmsg_mcap&#45;&gt;thread_supervisor</title>
<path fill="none" stroke="#0000ff" d="M515.89,-175.38C602.8,-171.96 724.31,-167.17 831,-163 876.78,-161.21 992.45,-165.69 1037,-155 1060.43,-149.38 1084.98,-138.32 1104.34,-128.24"/>
<polygon fill="#0000ff" stroke="#0000ff" points="1106.23,-131.2 1113.4,-123.39 1102.93,-125.02 1106.23,-131.2"/>
</g>
<!-- pjmsg_mcap_wrapper -->
<g id="node8" class="node">
<title>pjmsg_mcap_wrapper</title>
<g id="a_node8"><a xlink:href="../pjmsg_mcap_wrapper/index.html" xlink:title="pjmsg_mcap_wrapper">
<ellipse fill="none" stroke="black" cx="916" cy="-106" rx="111.58" ry="18"/>
<text text-anchor="middle" x="916" y="-102.3" font-family="Times,serif" font-size="14.00">pjmsg_mcap_wrapper</text>
</a>
</g>
</g>
<!-- intrometry_pjmsg_mcap&#45;&gt;pjmsg_mcap_wrapper -->
<g id="edge7" class="edge">
<title>intrometry_pjmsg_mcap&#45;&gt;pjmsg_mcap_wrapper</title>
<path fill="none" stroke="#0000ff" d="M518.52,-175.75C616.36,-172.31 746.69,-165.7 797.78,-154.03 824.04,-148.04 852.2,-136.79 874.33,-126.72"/>
<path fill="none" stroke="#ff0000" d="M518.59,-177.75C616.47,-174.31 746.79,-167.7 798.22,-155.97 824.78,-149.9 852.94,-138.65 875.16,-128.54"/>
<polygon fill="#0000ff" stroke="#0000ff" points="876.27,-130.78 883.87,-123.39 873.32,-124.43 876.27,-130.78"/>
</g>
<!-- ariles2_namevalue2_ws&#45;&gt;ariles2_core_ws -->
<g id="edge12" class="edge">
<title>ariles2_namevalue2_ws&#45;&gt;ariles2_core_ws</title>
<path fill="none" stroke="#0000ff" d="M660.58,-87.95C658.58,-80.15 656.16,-70.76 653.93,-62.08"/>
<path fill="none" stroke="#ff0000" d="M662.52,-87.45C660.51,-79.65 658.1,-70.26 655.87,-61.58"/>
<polygon fill="#0000ff" stroke="#0000ff" points="658.28,-60.92 652.4,-52.1 651.5,-62.66 658.28,-60.92"/>
</g>
</g>
</svg>
