<?xml version="1.0" encoding="UTF-8" standalone="no"?>
<!DOCTYPE svg PUBLIC "-//W3C//DTD SVG 1.1//EN"
 "http://www.w3.org/Graphics/SVG/1.1/DTD/svg11.dtd">
<!-- Generated by graphviz version 2.43.0 (0)
 -->
<!-- Title: mcap::BufferReader Pages: 1 -->
<svg width="156pt" height="137pt"
 viewBox="0.00 0.00 156.00 137.00" xmlns="http://www.w3.org/2000/svg" xmlns:xlink="http://www.w3.org/1999/xlink">
<g id="graph0" class="graph" transform="scale(1 1) rotate(0) translate(4 133)">
<title>mcap::BufferReader</title>
<!-- Node1 -->
<g id="Node000001" class="node">
<title>Node1</title>
<g id="a_Node000001"><a xlink:title="A &quot;null&quot; compressed reader that directly passes through uncompressed data. No internal buffers are al...">
<polygon fill="#999999" stroke="#666666" points="130.5,-19 17.5,-19 17.5,0 130.5,0 130.5,-19"/>
<text text-anchor="middle" x="74" y="-7" font-family="Helvetica,sans-Serif" font-size="10.00">mcap::BufferReader</text>
</a>
</g>
</g>
<!-- Node2 -->
<g id="Node000002" class="node">
<title>Node2</title>
<g id="a_Node000002"><a xlink:href="classmcap_1_1ICompressedReader.html" target="_top" xlink:title="An abstract interface for compressed readers.">
<polygon fill="white" stroke="#666666" points="148,-74 0,-74 0,-55 148,-55 148,-74"/>
<text text-anchor="middle" x="74" y="-62" font-family="Helvetica,sans-Serif" font-size="10.00">mcap::ICompressedReader</text>
</a>
</g>
</g>
<!-- Node2&#45;&gt;Node1 -->
<g id="edge1_Node000001_Node000002" class="edge">
<title>Node2&#45;&gt;Node1</title>
<g id="a_edge1_Node000001_Node000002"><a xlink:title=" ">
<path fill="none" stroke="#63b8ff" d="M74,-44.66C74,-35.93 74,-25.99 74,-19.09"/>
<polygon fill="#63b8ff" stroke="#63b8ff" points="70.5,-44.75 74,-54.75 77.5,-44.75 70.5,-44.75"/>
</a>
</g>
</g>
<!-- Node3 -->
<g id="Node000003" class="node">
<title>Node3</title>
<g id="a_Node000003"><a xlink:href="structmcap_1_1IReadable.html" target="_top" xlink:title="An abstract interface for reading MCAP data.">
<polygon fill="white" stroke="#666666" points="123,-129 25,-129 25,-110 123,-110 123,-129"/>
<text text-anchor="middle" x="74" y="-117" font-family="Helvetica,sans-Serif" font-size="10.00">mcap::IReadable</text>
</a>
</g>
</g>
<!-- Node3&#45;&gt;Node2 -->
<g id="edge2_Node000002_Node000003" class="edge">
<title>Node3&#45;&gt;Node2</title>
<g id="a_edge2_Node000002_Node000003"><a xlink:title=" ">
<path fill="none" stroke="#63b8ff" d="M74,-99.66C74,-90.93 74,-80.99 74,-74.09"/>
<polygon fill="#63b8ff" stroke="#63b8ff" points="70.5,-99.75 74,-109.75 77.5,-99.75 70.5,-99.75"/>
</a>
</g>
</g>
</g>
</svg>
