<?xml version="1.0" encoding="UTF-8" standalone="no"?>
<!DOCTYPE svg PUBLIC "-//W3C//DTD SVG 1.1//EN"
 "http://www.w3.org/Graphics/SVG/1.1/DTD/svg11.dtd">
<!-- Generated by graphviz version 2.43.0 (0)
 -->
<!-- Title: intrometry::pjmsg_mcap::Sink Pages: 1 -->
<svg width="767pt" height="76pt"
 viewBox="0.00 0.00 767.00 76.00" xmlns="http://www.w3.org/2000/svg" xmlns:xlink="http://www.w3.org/1999/xlink">
<g id="graph0" class="graph" transform="scale(1 1) rotate(0) translate(4 72)">
<title>intrometry::pjmsg_mcap::Sink</title>
<!-- Node1 -->
<g id="Node000001" class="node">
<title>Node1</title>
<g id="a_Node000001"><a xlink:title="Publish data.">
<polygon fill="#999999" stroke="#666666" points="759,-62.5 623,-62.5 623,-32.5 759,-32.5 759,-62.5"/>
<text text-anchor="start" x="631" y="-50.5" font-family="Helvetica,sans-Serif" font-size="10.00">intrometry::pjmsg_mcap</text>
<text text-anchor="middle" x="691" y="-39.5" font-family="Helvetica,sans-Serif" font-size="10.00">::Sink</text>
</a>
</g>
</g>
<!-- Node2 -->
<g id="Node000002" class="node">
<title>Node2</title>
<g id="a_Node000002"><a target="_parent" xlink:href="../@@PKG@@/classintrometry_1_1SinkPIMPLBase.html" xlink:title=" ">
<polygon fill="white" stroke="#666666" points="586,-68 438,-68 438,-27 586,-27 586,-68"/>
<text text-anchor="start" x="446" y="-56" font-family="Helvetica,sans-Serif" font-size="10.00">intrometry::SinkPIMPLBase</text>
<text text-anchor="start" x="446" y="-45" font-family="Helvetica,sans-Serif" font-size="10.00">&lt; sink::Parameters, sink</text>
<text text-anchor="middle" x="512" y="-34" font-family="Helvetica,sans-Serif" font-size="10.00">::Implementation &gt;</text>
</a>
</g>
</g>
<!-- Node2&#45;&gt;Node1 -->
<g id="edge1_Node000001_Node000002" class="edge">
<title>Node2&#45;&gt;Node1</title>
<g id="a_edge1_Node000001_Node000002"><a xlink:title=" ">
<path fill="none" stroke="#63b8ff" d="M596.08,-47.5C605.05,-47.5 614.09,-47.5 622.83,-47.5"/>
<polygon fill="#63b8ff" stroke="#63b8ff" points="596.01,-44 586.01,-47.5 596.01,-51 596.01,-44"/>
</a>
</g>
</g>
<!-- Node3 -->
<g id="Node000003" class="node">
<title>Node3</title>
<g id="a_Node000003"><a target="_parent" xlink:href="../@@PKG@@/classintrometry_1_1Sink.html" xlink:title=" ">
<polygon fill="white" stroke="#666666" points="95,-54 0,-54 0,-35 95,-35 95,-54"/>
<text text-anchor="middle" x="47.5" y="-42" font-family="Helvetica,sans-Serif" font-size="10.00">intrometry::Sink</text>
</a>
</g>
</g>
<!-- Node3&#45;&gt;Node2 -->
<g id="edge2_Node000002_Node000003" class="edge">
<title>Node3&#45;&gt;Node2</title>
<g id="a_edge2_Node000002_Node000003"><a xlink:title=" ">
<path fill="none" stroke="#63b8ff" d="M105.36,-49.05C107.94,-49.21 110.5,-49.36 113,-49.5 249.27,-56.95 283.66,-61.48 420,-55.5 425.7,-55.25 431.6,-54.91 437.53,-54.52"/>
<polygon fill="#63b8ff" stroke="#63b8ff" points="105.55,-45.56 95.34,-48.38 105.08,-52.54 105.55,-45.56"/>
</a>
</g>
</g>
<!-- Node4 -->
<g id="Node000004" class="node">
<title>Node4</title>
<g id="a_Node000004"><a target="_parent" xlink:href="../@@PKG@@/classintrometry_1_1SinkPIMPLBase.html" xlink:title=" ">
<polygon fill="white" stroke="#666666" points="283,-41 132,-41 132,0 283,0 283,-41"/>
<text text-anchor="start" x="140" y="-29" font-family="Helvetica,sans-Serif" font-size="10.00">intrometry::SinkPIMPLBase</text>
<text text-anchor="start" x="140" y="-18" font-family="Helvetica,sans-Serif" font-size="10.00">&lt; class t_Parameters, class</text>
<text text-anchor="middle" x="207.5" y="-7" font-family="Helvetica,sans-Serif" font-size="10.00"> t_Implementation &gt;</text>
</a>
</g>
</g>
<!-- Node3&#45;&gt;Node4 -->
<g id="edge4_Node000004_Node000003" class="edge">
<title>Node3&#45;&gt;Node4</title>
<g id="a_edge4_Node000004_Node000003"><a xlink:title=" ">
<path fill="none" stroke="#63b8ff" d="M105.04,-35.91C113.73,-34.59 122.82,-33.21 131.83,-31.84"/>
<polygon fill="#63b8ff" stroke="#63b8ff" points="104.41,-32.47 95.05,-37.43 105.46,-39.39 104.41,-32.47"/>
</a>
</g>
</g>
<!-- Node4&#45;&gt;Node2 -->
<g id="edge3_Node000002_Node000004" class="edge">
<title>Node4&#45;&gt;Node2</title>
<g id="a_edge3_Node000002_Node000004"><a xlink:title=" ">
<path fill="none" stroke="orange" stroke-dasharray="5,2" d="M293.22,-23.94C331.94,-25.96 378.36,-29.03 420,-33.5 425.72,-34.11 431.63,-34.83 437.57,-35.61"/>
<polygon fill="orange" stroke="orange" points="293.19,-20.43 283.03,-23.42 292.84,-27.42 293.19,-20.43"/>
</a>
</g>
<text text-anchor="start" x="301" y="-47.5" font-family="Helvetica,sans-Serif" font-size="10.00" fill="grey"> &lt; sink::Parameters,</text>
<text text-anchor="middle" x="360.5" y="-36.5" font-family="Helvetica,sans-Serif" font-size="10.00" fill="grey"> sink::Implementation &gt;</text>
</g>
</g>
</svg>
